<?xml version="1.0" standalone="no"?>
<!DOCTYPE svg PUBLIC "-//W3C//DTD SVG 1.1//EN" "http://www.w3.org/Graphics/SVG/1.1/DTD/svg11.dtd">
<svg xmlns="http://www.w3.org/2000/svg">
<metadata>Generated by Fontastic.me</metadata>
<defs>
<font id="fuel" horiz-adv-x="512">
<font-face font-family="fuel" units-per-em="512" ascent="480" descent="-32"/>
<missing-glyph horiz-adv-x="512" />

<glyph glyph-name="ico-3d-rotation" unicode="&#97;" d="M160 54c-69 33-119 100-127 181l-32 0c11-132 121-235 255-235l14 1-81 81z m19 139c-4 0-7 0-11 2-3 1-6 2-8 5-3 2-4 4-6 8-1 3-2 6-2 10l-27 0c0-8 1-15 4-21 3-5 7-10 12-14 5-4 11-7 18-9 6-2 13-3 20-3 8 0 15 1 22 3 7 2 13 5 18 9 5 4 9 9 11 16 3 6 5 13 5 20 0 4-1 8-2 12-1 4-2 8-5 11-2 4-5 7-8 9-4 3-8 5-13 7 4 2 8 4 11 7 3 3 6 6 8 9 2 3 3 6 4 10 1 3 2 7 2 10 0 8-1 14-4 20-3 6-6 11-11 15-4 4-10 7-16 9-7 2-14 3-22 3-8 0-15-1-21-3-7-2-13-6-17-10-5-4-8-8-11-14-3-6-4-11-4-18l28 0c0 4 0 7 2 9 1 3 3 6 5 8 2 2 5 3 8 4 3 2 7 2 10 2 9 0 15-2 19-6 4-5 7-11 7-19 0-4-1-7-2-10-1-3-3-6-5-8-3-2-6-4-9-5-4-2-8-2-13-2l-16 0 0-22 16 0c5 0 9-1 13-2 4-1 7-2 10-5 2-2 5-5 6-8 2-4 2-8 2-12 0-9-2-16-7-20-5-5-12-7-21-7z m183 126c-7 7-15 13-25 17-9 3-19 5-31 5l-50 0 0-170 49 0c12 0 23 2 32 5 10 4 18 10 25 17 7 7 12 15 16 25 3 10 5 21 5 34l0 8c0 12-2 24-5 34-4 10-9 18-16 25z m-9-67c0-9-1-17-2-24-3-7-6-14-10-19-4-4-9-8-15-11-6-2-13-4-21-4l-19 0 0 123 20 0c16 0 27-4 35-14 8-10 12-24 12-43z m-97 260l-14-1 81-81 29 28c69-33 119-100 127-180l32 0c-11 131-121 234-255 234z"/>
<glyph glyph-name="ico-ac-unit" unicode="&#98;" d="M512 282l-107 0 83 83-36 36-119-119-51 0 0 51 119 119-36 36-83-83 0 107-52 0 0-107-83 83-36-36 119-119 0-51-51 0-119 119-36-36 83-83-107 0 0-52 107 0-83-83 36-36 119 119 51 0 0-51-119-119 36-36 83 83 0-107 52 0 0 107 83-83 36 36-119 119 0 51 51 0 119-119 36 36-83 83 107 0z"/>
<glyph glyph-name="ico-access-alarm" unicode="&#99;" d="M512 413l-118 99-33-39 118-99z m-361 60l-33 39-118-99 33-39z m118-118l-39 0 0-154 122-73 19 32-102 60z m-13 102c-127 0-230-103-230-230 0-127 103-231 230-231 127 0 230 104 230 231 0 127-103 230-230 230z m0-409c-99 0-179 80-179 179 0 99 80 179 179 179 99 0 179-80 179-179 0-99-80-179-179-179z"/>
<glyph glyph-name="ico-access-alarms" unicode="&#100;" d="M508 414l-116 98-33-39 117-98z m-359 59l-32 39-117-98 33-39z m118-117l-38 0 0-153 121-72 19 31-102 60z m-13 102c-126 0-229-103-229-229 0-127 103-229 229-229 127 0 229 102 229 229 0 126-102 229-229 229z m0-407c-98 0-178 79-178 178 0 98 80 178 178 178 99 0 178-80 178-178 0-99-79-178-178-178z"/>
<glyph glyph-name="ico-access-time" unicode="&#101;" d="M256 512c141 0 256-115 256-256 0-141-115-256-256-256-142 0-256 115-256 256 0 141 114 256 256 256z m0-461c113 0 205 92 205 205 0 113-92 205-205 205-113 0-205-92-205-205 0-113 92-205 205-205z m13 333l0-134 115-69-19-31-135 80 0 154z"/>
<glyph glyph-name="ico-accessibility" unicode="&#102;" d="M262 512c29 0 52-23 52-51 0-28-23-51-52-51-28 0-51 23-51 51 0 28 23 51 51 51z m231-179l-154 0 0-333-51 0 0 154-51 0 0-154-51 0 0 333-154 0 0 51 461 0z"/>
<glyph glyph-name="ico-accessible" unicode="&#103;" d="M422 230l0 52c-39-1-79 19-104 46l-33 37c-4 5-10 9-15 12-1 0-1 0-1 0l0 0c-9 5-19 8-31 6-27-2-46-26-46-53l0-151c0-28 23-51 51-51l128 0 0-128 51 0 0 141c0 28-23 51-51 51l-77 0 0 88c33-27 84-49 128-50z m-158-128c-10-29-38-51-72-51-42 0-77 35-77 77 0 34 22 62 51 72l0 53c-58-11-102-63-102-125 0-71 57-128 128-128 62 0 114 44 125 102z m-21 308c28 0 51 23 51 51 0 28-23 51-51 51-28 0-51-23-51-51 0-28 23-51 51-51z"/>
<glyph glyph-name="ico-account-balance" unicode="&#104;" d="M81 293l0-171 73 0 0 171z m146 0l0-171 73 0 0 171z m-195-293l463 0 0 73-463 0z m341 293l0-171 73 0 0 171z m-109 219l-232-122 0-49 463 0 0 49z"/>
<glyph glyph-name="ico-account-balance-wallet" unicode="&#105;" d="M485 108l0-27c0-30-24-54-54-54l-377 0c-30 0-54 24-54 54l0 377c0 30 24 54 54 54l377 0c30 0 54-24 54-54l0-27-242 0c-30 0-54-24-54-54l0-215c0-30 24-54 54-54z m-242 54l269 0 0 215-269 0z m107 67c-22 0-40 18-40 40 0 23 18 41 40 41 23 0 41-18 41-41 0-22-18-40-41-40z"/>
<glyph glyph-name="ico-account-box" unicode="&#106;" d="M0 455l0-398c0-31 25-57 57-57l398 0c31 0 57 26 57 57l0 398c0 31-26 57-57 57l-398 0c-32 0-57-26-57-57z m341-114c0-47-38-85-85-85-47 0-85 38-85 85 0 48 38 86 85 86 47 0 85-38 85-86z m-256-227c0 57 114 88 171 88 57 0 171-31 171-88l0-29-342 0z"/>
<glyph glyph-name="ico-account-circle" unicode="&#107;" d="M256 512c-141 0-256-115-256-256 0-141 115-256 256-256 141 0 256 115 256 256 0 141-115 256-256 256z m0-77c42 0 77-34 77-77 0-42-35-76-77-76-42 0-77 34-77 76 0 43 35 77 77 77z m0-363c-64 0-121 32-154 82 1 51 103 79 154 79 51 0 153-28 154-79-33-50-90-82-154-82z"/>
<glyph glyph-name="ico-adb" unicode="&#108;" d="M96 166c0-92 74-166 166-166 92 0 166 74 166 166l0 95-332 0z m264 276l50 50-20 20-54-55c-22 11-47 18-74 18-26 0-51-7-73-18l-55 55-19-20 49-50c-41-30-68-78-68-133l0-24 332 0 0 24c0 55-27 103-68 133z m-169-110c-13 0-24 11-24 24 0 13 11 24 24 24 13 0 24-11 24-24 0-13-11-24-24-24z m142 0c-13 0-23 11-23 24 0 13 10 24 23 24 14 0 24-11 24-24 0-13-10-24-24-24z"/>
<glyph glyph-name="ico-add" unicode="&#109;" d="M512 219l-219 0 0-219-74 0 0 219-219 0 0 74 219 0 0 219 74 0 0-219 219 0z"/>
<glyph glyph-name="ico-add-a-photo" unicode="&#110;" d="M67 413l0 67 44 0 0-67 67 0 0-44-67 0 0-67-44 0 0 67-67 0 0 44z m67-133l0 66 66 0 0 67 156 0 41-44 70 0c25 0 45-20 45-45l0-267c0-24-20-44-45-44l-356 0c-24 0-44 20-44 44l0 223z m155-201c62 0 112 50 112 112 0 61-50 111-112 111-61 0-111-50-111-111 0-62 50-112 111-112z m-71 112c0-40 32-72 71-72 40 0 72 32 72 72 0 39-32 71-72 71-39 0-71-32-71-71z"/>
<glyph glyph-name="ico-add-alarm" unicode="&#111;" d="M149 473l-32 39-117-98 33-39z m359-59l-116 98-33-39 117-98z m-254 44c-126 0-229-103-229-229 0-127 103-229 229-229 127 0 229 102 229 229 0 126-102 229-229 229z m0-407c-98 0-178 79-178 178 0 98 80 178 178 178 99 0 178-80 178-178 0-99-79-178-178-178z m26 279l-51 0 0-76-76 0 0-51 76 0 0-76 51 0 0 76 76 0 0 51-76 0z"/>
<glyph glyph-name="ico-add-alert" unicode="&#112;" d="M203 49c0-27 22-49 48-49 27 0 49 22 49 49z m216 102l0 142c0 79-55 145-129 163l0 17c0 22-17 39-39 39-21 0-38-17-38-39l0-17c-74-18-129-84-129-163l0-142-52-52 0-26 439 0 0 26z m-70 93l-73 0 0-74-49 0 0 74-73 0 0 49 73 0 0 73 49 0 0-73 73 0z"/>
<glyph glyph-name="ico-add-box" unicode="&#113;" d="M455 512l-398 0c-32 0-57-26-57-57l0-398c0-31 25-57 57-57l398 0c31 0 57 26 57 57l0 398c0 31-26 57-57 57z m-57-284l-114 0 0-114-56 0 0 114-114 0 0 56 114 0 0 114 56 0 0-114 114 0z"/>
<glyph glyph-name="ico-add-circle" unicode="&#114;" d="M256 512c-141 0-256-115-256-256 0-141 115-256 256-256 141 0 256 115 256 256 0 141-115 256-256 256z m128-282l-102 0 0-102-52 0 0 102-102 0 0 52 102 0 0 102 52 0 0-102 102 0z"/>
<glyph glyph-name="ico-add-circle-outline" unicode="&#115;" d="M282 384l-52 0 0-102-102 0 0-52 102 0 0-102 52 0 0 102 102 0 0 52-102 0z m-26 128c-141 0-256-115-256-256 0-141 115-256 256-256 141 0 256 115 256 256 0 141-115 256-256 256z m0-461c-113 0-205 92-205 205 0 113 92 205 205 205 113 0 205-92 205-205 0-113-92-205-205-205z"/>
<glyph glyph-name="ico-add-location" unicode="&#116;" d="M243 512c-99 0-179-80-179-179 0-135 179-333 179-333 0 0 179 198 179 333 0 99-80 179-179 179z m103-205l-77 0 0-77-51 0 0 77-77 0 0 51 77 0 0 77 51 0 0-77 77 0z"/>
<glyph glyph-name="ico-add-shopping-cart" unicode="&#117;" d="M244 317l49 0 0 73 73 0 0 49-73 0 0 73-49 0 0-73-73 0 0-49 73 0z m-98-219c-27 0-48-22-48-49 0-27 21-49 48-49 27 0 49 22 49 49 0 27-22 49-49 49z m244 0c-27 0-48-22-48-49 0-27 21-49 48-49 27 0 49 22 49 49 0 27-22 49-49 49z m-240 79c0-4 3-6 7-6l282 0 0-49-293 0c-27 0-48 22-48 49 0 8 2 16 6 23l33 60-88 185-49 0 0 49 80 0 23-49 23-49 54-115 4-7 171 0 67 122 27 49 0 0 43-24-95-170c-8-16-24-26-42-26l-182 0-22-39z m272 213l-67-122z"/>
<glyph glyph-name="ico-add-to-photos" unicode="&#118;" d="M51 410l-51 0 0-359c0-28 23-51 51-51l359 0 0 51-359 0z m410 102l-307 0c-29 0-52-23-52-51l0-307c0-29 23-52 52-52l307 0c28 0 51 23 51 52l0 307c0 28-23 51-51 51z m-26-230l-102 0 0-103-51 0 0 103-103 0 0 51 103 0 0 102 51 0 0-102 102 0z"/>
<glyph glyph-name="ico-add-to-queue" unicode="&#119;" d="M465 480l-418 0c-26 0-47-21-47-47l0-279c0-25 21-46 47-46l116 0 0-47 186 0 0 47 116 0c26 0 47 21 47 46l0 279c0 26-21 47-47 47z m0-326l-418 0 0 279 418 0z m-116 163l0-46-70 0 0-70-46 0 0 70-70 0 0 46 70 0 0 70 46 0 0-70z"/>
<glyph glyph-name="ico-adjust" unicode="&#120;" d="M256 512c-141 0-256-115-256-256 0-141 115-256 256-256 141 0 256 115 256 256 0 141-115 256-256 256z m0-461c-113 0-205 92-205 205 0 113 92 205 205 205 113 0 205-92 205-205 0-113-92-205-205-205z m77 205c0-42-35-77-77-77-42 0-77 35-77 77 0 42 35 77 77 77 42 0 77-35 77-77z"/>
<glyph glyph-name="ico-airline-seat-flat" unicode="&#121;" d="M512 282l0-52-333 0 0 154 231 0c56 0 102-46 102-102z m-512-77l0-51 154 0 0-52 204 0 0 52 154 0 0 51z m132 48c29 31 29 79-1 109-31 30-79 29-109-1-30-31-29-79 1-109 31-29 79-29 109 1z"/>
<glyph glyph-name="ico-airline-seat-flat-angled" unicode="&#122;" d="M506 209l-17-46-301 109 50 138 209-75c51-19 78-75 59-126z m-506 53l158-57 0-111 196 0 0 40 110-40 17 47-464 167z m141 47c37 18 52 61 35 98-18 36-61 51-98 34-36-18-52-61-34-98 17-36 61-51 97-34z"/>
<glyph glyph-name="ico-airline-seat-individual-suite" unicode="&#65;" d="M149 235c36 0 64 28 64 64 0 35-28 64-64 64-35 0-64-29-64-64 0-36 29-64 64-64z m256 128l-170 0 0-150-171 0 0 150-43 0 0-214 470 0 0 128c0 47-39 86-86 86z"/>
<glyph glyph-name="ico-airline-seat-legroom-extra" unicode="&#66;" d="M49 261l0 219-49 0 0-219c0-68 55-122 122-122l146 0 0 48-146 0c-41 0-73 33-73 74z m459-128c-9 17-32 23-50 15l-26-12-83 170c-9 17-25 27-44 27l-86 1 0 146-146 0 0-195c0-41 33-73 73-73l171 0 83-171 91 42c19 8 27 31 17 50z"/>
<glyph glyph-name="ico-airline-seat-legroom-normal" unicode="&#67;" d="M54 269l0 243-54 0 0-243c0-74 60-134 135-134l161 0 0 54-161 0c-45 0-81 36-81 80z m418-161l-41 0 0 188c0 30-24 54-54 54l-134 0 0 162-162 0 0-216c0-44 36-80 81-80l188 0 0-189 122 0c22 0 40 18 40 40 0 23-18 41-40 41z"/>
<glyph glyph-name="ico-airline-seat-legroom-reduced" unicode="&#68;" d="M483 51c5-27-16-51-42-51l-128 0 0 85 28 114-170 0c-47 0-86 39-86 85l0 228 171 0 0-171 142 0c32 0 57-25 57-57l-57-199 41 0c21 0 40-14 44-34z m-426 205l0 256-57 0 0-256c0-79 64-142 142-142l114 0 0 57-114 0c-47 0-85 38-85 85z"/>
<glyph glyph-name="ico-airline-seat-recline-extra" unicode="&#69;" d="M86 419c-23 16-29 48-13 71 16 23 48 29 72 13 23-17 28-48 12-72-16-23-48-28-71-12z m272-342l-181 0c-37 0-70 27-75 65l-51 242-51 0 51-250c10-62 63-108 127-108l180 0z m6 102l-125 0-26 105c40-23 84-39 132-31l0 54c-42-7-88 7-120 32l-42 33c-6 5-13 8-20 10-8 2-17 3-25 1l-1 0c-31-5-52-35-47-67l35-151c7-36 39-63 75-63l176 0 98-76 38 38z"/>
<glyph glyph-name="ico-airline-seat-recline-normal" unicode="&#70;" d="M126 422c-20 21-20 54 0 75 21 20 54 20 75 0 20-21 20-54 0-75-21-20-54-20-75 0z m-41-278l0 237-53 0 0-237c0-72 59-131 131-131l158 0 0 53-158 0c-43 0-78 35-78 78z m367-106l-133 133-90 0 0 96c37-30 94-56 144-56l0 56c-43 0-95 23-122 54l-37 40c-5 6-11 10-18 14-8 3-16 6-25 6l-1 0c-33 0-59-27-59-59l0-151c0-44 35-79 79-79l133 0 91-92z"/>
<glyph glyph-name="ico-airplanemode-active" unicode="&#71;" d="M486 154l0 51-204 128 0 141c0 21-18 38-39 38-21 0-38-17-38-38l0-141-205-128 0-51 205 64 0-141-51-39 0-38 89 26 90-26 0 38-51 39 0 141z"/>
<glyph glyph-name="ico-airplanemode-inactive" unicode="&#72;" d="M282 333l0 141c0 21-18 38-39 38-21 0-38-17-38-38l0-95 200-200 81-25 0 51z m-256 95l127-127-153-96 0-51 205 64 0-141-51-39 0-38 89 26 90-26 0 38-51 39 0 95 146-146 33 32-403 403z"/>
<glyph glyph-name="ico-airplay" unicode="&#73;" d="M116 38l280 0-140 139z m349 442l-418 0c-26 0-47-21-47-47l0-279c0-25 21-46 47-46l93 0 0 46-93 0 0 279 418 0 0-279-93 0 0-46 93 0c26 0 47 21 47 46l0 279c0 26-21 47-47 47z"/>
<glyph glyph-name="ico-airport-shuttle" unicode="&#74;" d="M372 416l-325 0c-26 0-47-21-47-47l0-209 47 0c0-38 31-70 69-70 39 0 70 32 70 70l128 0c0-38 31-70 70-70 39 0 70 32 70 70l58 0 0 116z m-325-140l0 93 93 0 0-93z m69-151c-19 0-35 16-35 35 0 19 16 35 35 35 20 0 35-16 35-35 0-19-15-35-35-35z m163 151l-93 0 0 93 93 0z m105-151c-19 0-35 16-35 35 0 19 16 35 35 35 19 0 35-16 35-35 0-19-16-35-35-35z m-58 151l0 93 23 0 93-93z"/>
<glyph glyph-name="ico-alarm" unicode="&#75;" d="M508 414l-116 98-33-39 117-98z m-359 59l-32 39-117-98 33-39z m118-117l-38 0 0-153 121-72 19 31-102 60z m-13 102c-126 0-229-103-229-229 0-127 103-229 229-229 127 0 229 102 229 229 0 126-102 229-229 229z m0-407c-98 0-178 79-178 178 0 98 80 178 178 178 99 0 178-80 178-178 0-99-79-178-178-178z"/>
<glyph glyph-name="ico-alarm-add" unicode="&#76;" d="M149 473l-32 39-117-98 33-39z m359-59l-116 98-33-39 117-98z m-254 44c-126 0-229-103-229-229 0-127 103-229 229-229 127 0 229 102 229 229 0 126-102 229-229 229z m0-407c-98 0-178 79-178 178 0 98 80 178 178 178 99 0 178-80 178-178 0-99-79-178-178-178z m26 279l-51 0 0-76-76 0 0-51 76 0 0-76 51 0 0 76 76 0 0 51-76 0z"/>
<glyph glyph-name="ico-alarm-off" unicode="&#77;" d="M263 407c99 0 178-80 178-178 0-22-4-42-11-61l39-39c15 30 23 64 23 100 0 126-103 229-229 229-36 0-69-9-100-24l39-38c19 7 40 11 61 11z m254 7l-117 98-32-39 117-98z m-485 87l-32-32 34-34-28-24 36-36 28 24 20-20c-35-41-56-93-56-150 0-127 103-229 229-229 57 0 110 21 150 56l56-56 32 32-444 444z m345-409c-31-26-71-41-114-41-98 0-178 79-178 178 0 43 16 83 41 113z m-215 384l-36 36-22-18 36-36z"/>
<glyph glyph-name="ico-alarm-on" unicode="&#78;" d="M508 414l-116 98-33-39 117-98z m-359 59l-32 39-117-98 33-39z m105-15c-126 0-229-103-229-229 0-127 103-229 229-229 127 0 229 102 229 229 0 126-102 229-229 229z m0-407c-98 0-178 79-178 178 0 98 80 178 178 178 99 0 178-80 178-178 0-99-79-178-178-178z m-37 139l-54 54-27-27 81-81 152 153-27 27z"/>
<glyph glyph-name="ico-album" unicode="&#79;" d="M256 512c-141 0-256-115-256-256 0-141 115-256 256-256 141 0 256 115 256 256 0 141-115 256-256 256z m0-371c-64 0-115 51-115 115 0 64 51 115 115 115 64 0 115-51 115-115 0-64-51-115-115-115z m0 141c-14 0-26-12-26-26 0-14 12-26 26-26 14 0 26 12 26 26 0 14-12 26-26 26z"/>
<glyph glyph-name="ico-all-inclusive" unicode="&#80;" d="M397 371c-31 0-60-12-81-33l-60-53-32-29 0 0-58-51c-13-14-31-21-51-21-40 0-72 32-72 72 0 40 32 72 72 72 20 0 38-7 52-22l24-21 33 28-27 24c-22 22-51 34-82 34-63 0-115-52-115-115 0-63 52-115 115-115 31 0 60 12 81 33l60 53 0 0 32 29 0 0 58 51c13 14 31 21 51 21 40 0 72-32 72-72 0-40-32-72-72-72-19 0-38 7-52 22l-25 21-32-28 27-24c22-22 51-34 82-34 63 0 115 52 115 115 0 64-52 115-115 115z"/>
<glyph glyph-name="ico-all-out" unicode="&#81;" d="M384 512l128-128 0 128z m128-384l-128-128 128 0z m-384-128l-128 128 0-128z m-128 384l128 128-128 0z m414 30c-87 88-229 88-316 0-88-87-88-229 0-316 87-88 229-88 316 0 88 87 88 229 0 316z m-35-281c-68-68-178-68-246 0-68 68-68 178 0 246 68 68 178 68 246 0 68-68 68-178 0-246z"/>
<glyph glyph-name="ico-android" unicode="&#82;" d="M128 128c0-12 10-21 21-21l22 0 0-75c0-18 14-32 32-32 17 0 32 14 32 32l0 75 42 0 0-75c0-18 15-32 32-32 18 0 32 14 32 32l0 75 22 0c11 0 21 9 21 21l0 213-256 0z m-53 213c-18 0-32-14-32-32l0-149c0-18 14-32 32-32 17 0 32 14 32 32l0 149c0 18-15 32-32 32z m362 0c-17 0-32-14-32-32l0-149c0-18 15-32 32-32 18 0 32 14 32 32l0 149c0 18-14 32-32 32z m-106 125l28 28c4 4 4 11 0 15-4 4-11 4-15 0l-32-32c-17 9-36 14-56 14-20 0-40-5-57-14l-32 32c-4 4-10 4-15 0-4-4-4-11 0-15l28-28c-31-24-52-61-52-103l256 0c0 42-21 80-53 103z m-118-61l-21 0 0 22 21 0z m107 0l-21 0 0 22 21 0z"/>
<glyph glyph-name="ico-announcement" unicode="&#83;" d="M461 512l-410 0c-28 0-51-23-51-51l0-461 102 102 359 0c28 0 51 23 51 52l0 307c0 28-23 51-51 51z m-179-230l-52 0 0 153 52 0z m0-103l-52 0 0 51 52 0z"/>
<glyph glyph-name="ico-apps" unicode="&#84;" d="M0 384l128 0 0 128-128 0z m192-384l128 0 0 128-128 0z m-192 0l128 0 0 128-128 0z m0 192l128 0 0 128-128 0z m192 0l128 0 0 128-128 0z m192 320l0-128 128 0 0 128z m-192-128l128 0 0 128-128 0z m192-192l128 0 0 128-128 0z m0-192l128 0 0 128-128 0z"/>
<glyph glyph-name="ico-archive" unicode="&#85;" d="M499 449l-40 47c-7 10-19 16-32 16l-342 0c-13 0-25-6-33-16l-39-47c-8-10-13-23-13-37l0-355c0-31 26-57 57-57l398 0c31 0 57 26 57 57l0 355c0 14-5 27-13 37z m-243-349l-156 156 99 0 0 57 114 0 0-57 99 0z m-196 355l23 29 342 0 26-29z"/>
<glyph glyph-name="ico-arrow-back" unicode="&#86;" d="M512 288l-389 0 178 179-45 45-256-256 256-256 45 45-178 179 389 0z"/>
<glyph glyph-name="ico-arrow-downward" unicode="&#87;" d="M512 256l-45 45-179-178 0 389-64 0 0-389-179 178-45-45 256-256z"/>
<glyph glyph-name="ico-arrow-drop-down" unicode="&#88;" d="M0 384l256-256 256 256z"/>
<glyph glyph-name="ico-arrow-drop-down-circle" unicode="&#89;" d="M256 512c-141 0-256-115-256-256 0-141 115-256 256-256 141 0 256 115 256 256 0 141-115 256-256 256z m0-307l-102 102 204 0z"/>
<glyph glyph-name="ico-arrow-drop-up" unicode="&#90;" d="M0 128l256 256 256-256z"/>
<glyph glyph-name="ico-arrow-forward" unicode="&#48;" d="M256 512l-45-45 178-179-389 0 0-64 389 0-178-179 45-45 256 256z"/>
<glyph glyph-name="ico-arrow-upward" unicode="&#49;" d="M0 256l45-45 179 178 0-389 64 0 0 389 179-178 45 45-256 256z"/>
<glyph glyph-name="ico-art-track" unicode="&#50;" d="M512 230l-205 0 0 52 205 0z m0 154l-205 0 0-51 205 0z m-205-256l205 0 0 51-205 0z m-51 205l0-154c0-28-23-51-51-51l-154 0c-28 0-51 23-51 51l0 154c0 28 23 51 51 51l154 0c28 0 51-23 51-51z m-38-154l-58 77-45-58-32 39-45-58z"/>
<glyph glyph-name="ico-aspect-ratio" unicode="&#51;" d="M419 271l-47 0 0-70-69 0 0-47 116 0z m-279 69l69 0 0 47-116 0 0-116 47 0z m325 140l-418 0c-26 0-47-21-47-47l0-325c0-26 21-47 47-47l418 0c26 0 47 21 47 47l0 325c0 26-21 47-47 47z m0-373l-418 0 0 327 418 0z"/>
<glyph glyph-name="ico-assessment" unicode="&#52;" d="M455 512l-398 0c-31 0-57-26-57-57l0-398c0-31 26-57 57-57l398 0c31 0 57 26 57 57l0 398c0 31-26 57-57 57z m-284-398l-57 0 0 199 57 0z m113 0l-56 0 0 284 56 0z m114 0l-57 0 0 114 57 0z"/>
<glyph glyph-name="ico-assignment-24px" unicode="&#53;" d="M442 461l-107 0c-11 29-39 51-73 51-33 0-61-22-72-51l-107 0c-28 0-51-23-51-51l0-359c0-28 23-51 51-51l359 0c28 0 51 23 51 51l0 359c0 28-23 51-51 51z m-180 0c14 0 26-12 26-26 0-14-12-25-26-25-14 0-25 11-25 25 0 14 11 26 25 26z m52-359l-180 0 0 52 180 0z m76 103l-256 0 0 51 256 0z m0 102l-256 0 0 51 256 0z"/>
<glyph glyph-name="ico-assignment-ind" unicode="&#54;" d="M442 461l-107 0c-11 29-39 51-73 51-33 0-61-22-72-51l-107 0c-28 0-51-23-51-51l0-359c0-28 23-51 51-51l359 0c28 0 51 23 51 51l0 359c0 28-23 51-51 51z m-180 0c14 0 26-12 26-26 0-14-12-25-26-25-14 0-25 11-25 25 0 14 11 26 25 26z m0-103c43 0 77-34 77-76 0-43-34-77-77-77-42 0-76 34-76 77 0 42 34 76 76 76z m154-307l-307 0 0 36c0 51 102 79 153 79 52 0 154-28 154-79z"/>
<glyph glyph-name="ico-assignment-late" unicode="&#55;" d="M442 461l-107 0c-11 29-39 51-73 51-33 0-61-22-72-51l-107 0c-28 0-51-23-51-51l0-359c0-28 23-51 51-51l359 0c28 0 51 23 51 51l0 359c0 28-23 51-51 51z m-154-384l-51 0 0 51 51 0z m0 102l-51 0 0 154 51 0z m-26 231c-14 0-25 11-25 25 0 14 11 26 25 26 14 0 26-12 26-26 0-14-12-25-26-25z"/>
<glyph glyph-name="ico-assignment-return" unicode="&#56;" d="M442 461l-107 0c-11 29-39 51-73 51-33 0-61-22-72-51l-107 0c-28 0-51-23-51-51l0-359c0-28 23-51 51-51l359 0c28 0 51 23 51 51l0 359c0 28-23 51-51 51z m-180 0c14 0 26-12 26-26 0-14-12-25-26-25-14 0-25 11-25 25 0 14 11 26 25 26z m103-307l-103 0 0-77-128 128 128 128 0-77 103 0z"/>
<glyph glyph-name="ico-assignment-returned" unicode="&#57;" d="M442 461l-107 0c-11 29-39 51-73 51-33 0-61-22-72-51l-107 0c-28 0-51-23-51-51l0-359c0-28 23-51 51-51l359 0c28 0 51 23 51 51l0 359c0 28-23 51-51 51z m-180 0c14 0 26-12 26-26 0-14-12-25-26-25-14 0-25 11-25 25 0 14 11 26 25 26z m0-384l-128 128 77 0 0 102 103 0 0-102 76 0z"/>
<glyph glyph-name="ico-assignment-turned-in" unicode="&#33;" d="M442 461l-107 0c-11 29-39 51-73 51-33 0-61-22-72-51l-107 0c-28 0-51-23-51-51l0-359c0-28 23-51 51-51l359 0c28 0 51 23 51 51l0 359c0 28-23 51-51 51z m-180 0c14 0 26-12 26-26 0-14-12-25-26-25-14 0-25 11-25 25 0 14 11 26 25 26z m-51-359l-102 103 36 36 66-66 169 169 36-37z"/>
<glyph glyph-name="ico-assistant" unicode="&#34;" d="M422 512l-341 0c-27 0-49-22-49-49l0-341c0-27 22-49 49-49l97 0 73-73 74 73 97 0c27 0 49 22 49 49l0 341c0 27-22 49-49 49z m-125-265l-46-101-45 101-101 46 101 45 45 101 46-101 101-45z"/>
<glyph glyph-name="ico-assistant-photo" unicode="&#35;" d="M315 452l-12 60-271 0 0-512 60 0 0 211 169 0 12-60 211 0 0 301z"/>
<glyph glyph-name="ico-attach-file" unicode="&#36;" d="M349 396l0-268c0-51-42-93-93-93-51 0-93 42-93 93l0 291c0 32 26 58 58 58 32 0 58-26 58-58l0-244c0-13-10-24-23-24-13 0-23 11-23 24l0 221-35 0 0-221c0-33 26-59 58-59 32 0 58 26 58 59l0 244c0 51-41 93-93 93-51 0-93-42-93-93l0-291c0-71 57-128 128-128 71 0 128 57 128 128l0 268z"/>
<glyph glyph-name="ico-attach-money" unicode="&#37;" d="M252 287c-65 17-85 34-85 61 0 31 28 53 76 53 51 0 70-24 71-60l63 0c-2 49-32 94-91 109l0 62-85 0 0-61c-56-12-100-48-100-103 0-66 54-99 134-118 71-17 85-42 85-68 0-20-14-51-77-51-58 0-81 26-84 60l-63 0c3-63 50-98 105-109l0-62 85 0 0 61c55 11 100 43 100 101 0 81-70 109-134 125z"/>
<glyph glyph-name="ico-attachment" unicode="&#38;" d="M0 243c0 78 63 141 141 141l269 0c56 0 102-46 102-102 0-57-46-103-102-103l-218 0c-35 0-64 29-64 64 0 36 29 64 64 64l192 0 0-51-194 0c-14 0-14-26 0-26l220 0c28 0 51 23 51 52 0 28-23 51-51 51l-269 0c-50 0-90-40-90-90 0-49 40-89 90-89l243 0 0-52-243 0c-78 0-141 63-141 141z"/>
<glyph glyph-name="ico-audiotrack" unicode="&#39;" d="M235 512l0-264c-14 5-28 8-43 8-71 0-128-57-128-128 0-71 57-128 128-128 66 0 119 50 127 114l1 0 0 313 114 0 0 85z"/>
<glyph glyph-name="ico-autorenew" unicode="&#40;" d="M250 396l0-70 93 93-93 93 0-70c-103 0-186-83-186-186 0-37 11-71 29-99l34 34c-11 19-16 41-16 65 0 77 62 140 139 140z m158-41l-34-34c10-19 16-41 16-65 0-77-63-140-140-140l0 70-93-93 93-93 0 70c103 0 186 83 186 186 0 37-10 71-28 99z"/>
<glyph glyph-name="ico-av-timer" unicode="&#41;" d="M228 114c0-16 12-29 28-29 16 0 28 13 28 29 0 15-12 28-28 28-16 0-28-13-28-28z m0 398l0-114 56 0 0 55c97-14 171-97 171-197 0-110-89-199-199-199-110 0-199 89-199 199 0 48 17 92 45 126l154-154 40 40-193 193 0 0c-63-47-103-121-103-205 0-141 114-256 256-256 141 0 256 115 256 256 0 141-115 256-256 256z m199-256c0 16-13 28-29 28-15 0-28-12-28-28 0-16 13-28 28-28 16 0 29 12 29 28z m-342 0c0-16 13-28 29-28 15 0 28 12 28 28 0 16-13 28-28 28-16 0-29-12-29-28z"/>
<glyph glyph-name="ico-backspace" unicode="&#42;" d="M469 448l-320 0c-14 0-26-7-34-19l-115-173 115-173c8-11 20-19 34-19l320 0c24 0 43 19 43 43l0 298c0 24-19 43-43 43z m-64-269l-30-30-76 77-77-77-30 30 77 77-77 77 30 30 77-77 76 77 30-30-76-77z"/>
<glyph glyph-name="ico-backup" unicode="&#43;" d="M413 298c-15 73-79 129-157 129-62 0-115-35-142-87-64-6-114-61-114-127 0-70 57-128 128-128l277 0c59 0 107 48 107 107 0 56-44 102-99 106z m-114-63l0-86-86 0 0 86-64 0 107 106 107-106z"/>
<glyph glyph-name="ico-baseline-delete-outline" unicode="&#44;" d="M75 57c0-31 25-57 57-57l227 0c31 0 57 26 57 57l0 341-341 0z m57 284l227 0 0-284-227 0z m213 143l-29 28-142 0-28-28-100 0 0-57 398 0 0 57z"/>
<glyph glyph-name="ico-battery-alert" unicode="&#45;" d="M350 461l-43 0 0 51-102 0 0-51-43 0c-19 0-34-16-34-34l0-393c0-19 15-34 34-34l188 0c19 0 34 15 34 34l0 393c0 18-15 34-34 34z m-68-359l-52 0 0 52 52 0z m0 103l-52 0 0 128 52 0z"/>
<glyph glyph-name="ico-battery-charging-full" unicode="&#46;" d="M350 461l-43 0 0 51-102 0 0-51-43 0c-19 0-34-16-34-34l0-393c0-19 15-34 34-34l188 0c19 0 34 15 34 34l0 393c0 18-15 34-34 34z m-120-410l0 141-51 0 103 192 0-141 51 0z"/>
<glyph glyph-name="ico-bullhorn" unicode="&#47;" d="M263 375l-210 0c-29 0-53-24-53-53l0-105c0-29 24-52 53-52l26 0 0-105c0-15 12-26 26-26l53 0c14 0 26 11 26 26l0 105 79 0 131-105 0 420z m249-105c0-45-25-86-66-105l0 210c41-20 66-60 66-105z"/>
<glyph glyph-name="ico-battery-full" unicode="&#58;" d="M350 461l-43 0 0 51-102 0 0-51-43 0c-19 0-34-16-34-34l0-393c0-19 15-34 34-34l188 0c19 0 34 15 34 34l0 393c0 18-15 34-34 34z"/>
<glyph glyph-name="ico-battery-unknown" unicode="&#59;" d="M350 461l-43 0 0 51-102 0 0-51-43 0c-19 0-34-16-34-34l0-393c0-19 15-34 34-34l188 0c19 0 34 15 34 34l0 393c0 18-15 34-34 34z m-70-357l-48 0 0 48 48 0z m18 116c0 0-22-29-22-41l-40 0c0 21 11 39 23 51l24 24c6 7 10 15 11 24 0 1 0 2 0 4 0 21-17 38-38 38-21 0-38-17-38-38l-39 0c0 42 35 76 77 76 42 0 77-34 77-76 0-17-18-44-18-44 0 0-17-18-17-18z"/>
<glyph glyph-name="ico-beach-access" unicode="&#60;" d="M288 183l41 41 183-183-41-41z m122 163l82 82c-113 112-295 112-407 0 112 37 236 7 325-82z m-326 81c-112-112-112-294 0-407l82 82c-89 89-119 213-82 325z m0 1l0 0c-11-86 33-196 122-285l163 163c-89 89-199 133-285 122z"/>
<glyph glyph-name="ico-beenhere" unicode="&#61;" d="M405 512l-298 0c-24 0-43-21-43-47l0-300c0-17 7-31 19-39l173-126 173 126c11 8 19 22 19 39l0 300c0 26-19 47-43 47z m-192-349l-106 116 30 33 76-83 162 176 30-33z"/>
<glyph glyph-name="ico-block" unicode="&#62;" d="M256 512c-141 0-256-115-256-256 0-141 115-256 256-256 141 0 256 115 256 256 0 141-115 256-256 256z m-205-256c0 113 92 205 205 205 47 0 91-16 125-43l-287-287c-27 34-43 78-43 125z m205-205c-47 0-91 16-125 43l287 287c27-34 43-78 43-125 0-113-92-205-205-205z"/>
<glyph glyph-name="ico-bluetooth" unicode="&#63;" d="M421 366l-146 146-25 0 0-194-118 117-36-36 143-143-143-143 36-36 118 117 0-194 25 0 146 146-110 110z m-120 48l48-48-48-48z m48-268l-48-48 0 96z"/>
<glyph glyph-name="ico-bluetooth-audio" unicode="&#64;" d="M320 256l59-60c7 19 11 39 11 60 0 21-4 41-11 59z m135 135l-32-32c16-31 25-66 25-103 0-37-9-72-25-103l31-30c24 39 39 86 39 136 0 48-14 94-38 132z m-98-25l-146 146-25 0 0-194-118 117-36-36 143-143-143-143 36-36 118 117 0-194 25 0 146 146-110 110z m-120 48l48-48-48-48z m48-268l-48-48 0 96z"/>
<glyph glyph-name="ico-bluetooth-connected" unicode="&#91;" d="M134 256l-51 51-51-51 51-51z m275 110l-147 146-25 0 0-194-118 117-36-36 143-143-143-143 36-36 118 117 0-194 25 0 147 146-111 110z m-121 48l48-48-48-48z m48-268l-48-48 0 96z m106 161l-52-51 52-51 51 51z"/>
<glyph glyph-name="ico-bluetooth-disabled" unicode="&#93;" d="M294 414l49-48-41-41 36-36 77 77-146 146-26 0 0-129 51-51z m-194 47l-36-36 169-169-143-143 36-36 117 117 0-194 26 0 110 110 59-59 36 36z m194-363l0 96 49-48z"/>
<glyph glyph-name="ico-bluetooth-searching" unicode="&#94;" d="M320 256l59-60c7 19 11 39 11 60 0 21-4 41-11 59z m135 135l-32-32c16-31 25-66 25-103 0-37-9-72-25-103l31-30c24 39 39 86 39 136 0 48-14 94-38 132z m-98-25l-146 146-25 0 0-194-118 117-36-36 143-143-143-143 36-36 118 117 0-194 25 0 146 146-110 110z m-120 48l48-48-48-48z m48-268l-48-48 0 96z"/>
<glyph glyph-name="ico-blur-circular" unicode="&#95;" d="M205 333c-14 0-26-12-26-26 0-14 12-25 26-25 14 0 25 11 25 25 0 14-11 26-25 26z m0-103c-14 0-26-11-26-25 0-14 12-26 26-26 14 0 25 12 25 26 0 14-11 25-25 25z m-77 90c-7 0-13-6-13-13 0-7 6-13 13-13 7 0 13 6 13 13 0 7-6 13-13 13z m77-179c-7 0-13-6-13-13 0-7 6-13 13-13 7 0 13 6 13 13 0 7-6 13-13 13z m-77 77c-7 0-13-6-13-13 0-7 6-13 13-13 7 0 13 6 13 13 0 7-6 13-13 13z m77 153c7 0 13 6 13 13 0 7-6 13-13 13-7 0-13-6-13-13 0-7 6-13 13-13z m102-38c-14 0-25-12-25-26 0-14 11-25 25-25 14 0 26 11 26 25 0 14-12 26-26 26z m0 38c7 0 13 6 13 13 0 7-6 13-13 13-7 0-13-6-13-13 0-7 6-13 13-13z m77-153c-7 0-13-6-13-13 0-7 6-13 13-13 7 0 13 6 13 13 0 7-6 13-13 13z m0 102c-7 0-13-6-13-13 0-7 6-13 13-13 7 0 13 6 13 13 0 7-6 13-13 13z m-128 192c-141 0-256-115-256-256 0-141 115-256 256-256 141 0 256 115 256 256 0 141-115 256-256 256z m0-461c-113 0-205 92-205 205 0 113 92 205 205 205 113 0 205-92 205-205 0-113-92-205-205-205z m51 90c-7 0-13-6-13-13 0-7 6-13 13-13 7 0 13 6 13 13 0 7-6 13-13 13z m0 89c-14 0-25-11-25-25 0-14 11-26 25-26 14 0 26 12 26 26 0 14-12 25-26 25z"/>
<glyph glyph-name="ico-blur-linear" unicode="&#96;" d="M57 100c23 0 43 19 43 42 0 24-20 43-43 43-24 0-43-19-43-43 0-23 19-42 43-42z m114 128c15 0 28 12 28 28 0 16-13 28-28 28-16 0-29-12-29-28 0-16 13-28 29-28z m0 113c15 0 28 13 28 29 0 15-13 28-28 28-16 0-29-13-29-28 0-16 13-29 29-29z m-171-341l512 0 0 57-512 0z m57 327c23 0 43 19 43 43 0 23-20 42-43 42-24 0-43-19-43-42 0-24 19-43 43-43z m0-114c23 0 43 19 43 43 0 24-20 43-43 43-24 0-43-19-43-43 0-24 19-43 43-43z m114-99c15 0 28 13 28 28 0 16-13 29-28 29-16 0-29-13-29-29 0-15 13-28 29-28z m227 14c8 0 14 6 14 14 0 8-6 14-14 14-8 0-14-6-14-14 0-8 6-14 14-14z m-398 384l0-57 512 0 0 57z m398-156c8 0 14 6 14 14 0 8-6 14-14 14-8 0-14-6-14-14 0-8 6-14 14-14z m0-114c8 0 14 6 14 14 0 8-6 14-14 14-8 0-14-6-14-14 0-8 6-14 14-14z m-114 99c16 0 29 13 29 29 0 15-13 28-29 28-15 0-28-13-28-28 0-16 13-29 28-29z m0-113c16 0 29 12 29 28 0 16-13 28-29 28-15 0-28-12-28-28 0-16 13-28 28-28z m0-114c16 0 29 13 29 28 0 16-13 29-29 29-15 0-28-13-28-29 0-15 13-28 28-28z"/>
<glyph glyph-name="ico-blur-off" unicode="&#123;" d="M310 391c15 0 27 12 27 27 0 15-12 27-27 27-15 0-27-12-27-27 0-15 12-27 27-27z m-5-121l5-1c22 0 40 19 40 41 0 22-18 40-40 40-22 0-41-18-41-40l1-5c2-19 16-33 35-35z m5 215c7 0 13 6 13 14 0 7-6 13-13 13-8 0-14-6-14-13 0-8 6-14 14-14z m-108 0c8 0 14 6 14 14 0 7-6 13-14 13-7 0-13-6-13-13 0-8 6-14 13-14z m297-189c7 0 13 6 13 14 0 7-6 13-13 13-8 0-14-6-14-13 0-8 6-14 14-14z m-297 95c15 0 27 12 27 27 0 15-12 27-27 27-15 0-27-12-27-27 0-15 12-27 27-27z m216-216c15 0 27 12 27 27 0 15-12 27-27 27-15 0-27-12-27-27 0-15 12-27 27-27z m0 108c15 0 27 12 27 27 0 15-12 27-27 27-15 0-27-12-27-27 0-15 12-27 27-27z m0 108c15 0 27 12 27 27 0 15-12 27-27 27-15 0-27-12-27-27 0-15 12-27 27-27z m-108-364c-8 0-14-6-14-14 0-7 6-13 14-13 7 0 13 6 13 13 0 8-6 14-13 14z m-310 410l102-102-8 2c-15 0-27-12-27-27 0-15 12-27 27-27 15 0 27 12 27 27 0 3-1 5-1 7l75-75c-19-3-33-20-33-40 0-22 18-40 40-40 20 0 37 14 40 33l75-75c-2 0-4 1-7 1-15 0-27-12-27-27 0-15 12-27 27-27 15 0 27 12 27 27 0 3-1 5-2 8l102-102 35 34-438 438z m202-316c-15 0-27-12-27-27 0-15 12-27 27-27 15 0 27 12 27 27 0 15-12 27-27 27z m297 95c-8 0-14-6-14-14 0-7 6-13 14-13 7 0 13 6 13 13 0 8-6 14-13 14z m-405 13c-15 0-27-12-27-27 0-15 12-27 27-27 15 0 27 12 27 27 0 15-12 27-27 27z m-81 94c-7 0-13-6-13-13 0-8 6-14 13-14 8 0 14 6 14 14 0 7-6 13-14 13z m189-296c-7 0-13-6-13-14 0-7 6-13 13-13 8 0 14 6 14 13 0 8-6 14-14 14z m-108 94c-15 0-27-12-27-27 0-15 12-27 27-27 15 0 27 12 27 27 0 15-12 27-27 27z m-81 95c-7 0-13-6-13-14 0-7 6-13 13-13 8 0 14 6 14 13 0 8-6 14-14 14z"/>
<glyph glyph-name="ico-blur-on" unicode="&#124;" d="M94 229c-15 0-27-12-27-27 0-15 12-27 27-27 15 0 27 12 27 27 0 15-12 27-27 27z m0-108c-15 0-27-12-27-27 0-15 12-27 27-27 15 0 27 12 27 27 0 15-12 27-27 27z m0 216c-15 0-27-12-27-27 0-15 12-27 27-27 15 0 27 12 27 27 0 15-12 27-27 27z m-81-14c-7 0-13-6-13-13 0-8 6-14 13-14 8 0 14 6 14 14 0 7-6 13-14 13z m81 122c-15 0-27-12-27-27 0-15 12-27 27-27 15 0 27 12 27 27 0 15-12 27-27 27z m405-149c7 0 13 6 13 14 0 7-6 13-13 13-8 0-14-6-14-13 0-8 6-14 14-14z m-189 95c15 0 27 12 27 27 0 15-12 27-27 27-15 0-27-12-27-27 0-15 12-27 27-27z m0 94c7 0 13 6 13 14 0 7-6 13-13 13-8 0-14-6-14-13 0-8 6-14 14-14z m-297-269c-7 0-13-6-13-14 0-7 6-13 13-13 8 0 14 6 14 13 0 8-6 14-14 14z m189-189c-7 0-13-6-13-14 0-7 6-13 13-13 8 0 14 6 14 13 0 8-6 14-14 14z m0 458c8 0 14 6 14 14 0 7-6 13-14 13-7 0-13-6-13-13 0-8 6-14 13-14z m0-94c15 0 27 12 27 27 0 15-12 27-27 27-15 0-27-12-27-27 0-15 12-27 27-27z m0-148c-22 0-40-19-40-41 0-22 18-40 40-40 22 0 41 18 41 40 0 22-19 41-41 41z m216-14c-15 0-27-12-27-27 0-15 12-27 27-27 15 0 27 12 27 27 0 15-12 27-27 27z m0-108c-15 0-27-12-27-27 0-15 12-27 27-27 15 0 27 12 27 27 0 15-12 27-27 27z m0 216c-15 0-27-12-27-27 0-15 12-27 27-27 15 0 27 12 27 27 0 15-12 27-27 27z m0 108c-15 0-27-12-27-27 0-15 12-27 27-27 15 0 27 12 27 27 0 15-12 27-27 27z m81-229c-8 0-14-6-14-14 0-7 6-13 14-13 7 0 13 6 13 13 0 8-6 14-13 14z m-189-95c-15 0-27-12-27-27 0-15 12-27 27-27 15 0 27 12 27 27 0 15-12 27-27 27z m0-94c-8 0-14-6-14-14 0-7 6-13 14-13 7 0 13 6 13 13 0 8-6 14-13 14z m-108 323c-22 0-40-18-40-40 0-22 18-41 40-41 22 0 41 19 41 41 0 22-19 40-41 40z m0-229c-15 0-27-12-27-27 0-15 12-27 27-27 15 0 27 12 27 27 0 15-12 27-27 27z m108 122c-22 0-41-19-41-41 0-22 19-40 41-40 22 0 40 18 40 40 0 22-18 41-40 41z m0 107c-22 0-41-18-41-40 0-22 19-41 41-41 22 0 40 19 40 41 0 22-18 40-40 40z"/>
<glyph glyph-name="ico-book" unicode="&#125;" d="M422 512l-307 0c-28 0-51-23-51-51l0-410c0-28 23-51 51-51l307 0c29 0 52 23 52 51l0 410c0 28-23 51-52 51z m-307-51l128 0 0-205-64 38-64-38z"/>
<glyph glyph-name="ico-bookmark" unicode="&#126;" d="M405 512l-284 0c-31 0-57-26-57-57l0-455 199 85 199-85 0 455c0 31-25 57-57 57z"/>
<glyph glyph-name="ico-bookmark-border" unicode="&#92;" d="M405 512l-284 0c-31 0-57-26-57-57l0-455 199 85 199-85 0 455c0 31-25 57-57 57z m0-427l-142 62-142-62 0 370 284 0z"/>
<glyph glyph-name="ico-border-all" unicode="&#57344;" d="M0 512l0-512 512 0 0 512z m228-455l-171 0 0 171 171 0z m0 227l-171 0 0 171 171 0z m227-227l-171 0 0 171 171 0z m0 227l-171 0 0 171 171 0z"/>
<glyph glyph-name="ico-border-bottom" unicode="&#57345;" d="M171 284l-57 0 0-56 57 0z m113-113l-56 0 0-57 56 0z m-113 341l-57 0 0-57 57 0z m113-228l-56 0 0-56 56 0z m-227 228l-57 0 0-57 57 0z m227-114l-56 0 0-57 56 0z m114-114l-57 0 0-56 57 0z m-114 228l-56 0 0-57 56 0z m114 0l-57 0 0-57 57 0z m57-284l57 0 0 56-57 0z m0-114l57 0 0 57-57 0z m-398 284l-57 0 0-57 57 0z m398 114l0-57 57 0 0 57z m0-171l57 0 0 57-57 0z m-398-57l-57 0 0-56 57 0z m-57-284l512 0 0 57-512 0z m57 171l-57 0 0-57 57 0z"/>
<glyph glyph-name="ico-border-clear" unicode="&#57346;" d="M114 455l57 0 0 57-57 0z m0-227l57 0 0 56-57 0z m0-228l57 0 0 57-57 0z m114 114l56 0 0 57-56 0z m0-114l56 0 0 57-56 0z m-228 0l57 0 0 57-57 0z m0 114l57 0 0 57-57 0z m0 114l57 0 0 56-57 0z m0 113l57 0 0 57-57 0z m0 114l57 0 0 57-57 0z m228-227l56 0 0 56-56 0z m227-114l57 0 0 57-57 0z m0 114l57 0 0 56-57 0z m0-228l57 0 0 57-57 0z m0 341l57 0 0 57-57 0z m-227 0l56 0 0 57-56 0z m227 171l0-57 57 0 0 57z m-227-57l56 0 0 57-56 0z m113-455l57 0 0 57-57 0z m0 228l57 0 0 56-57 0z m0 227l57 0 0 57-57 0z"/>
<glyph glyph-name="ico-border-color" unicode="&#57347;" d="M414 301l-113 113-301-301 0-113 113 0z m89 89c12 12 12 31 0 43l-70 70c-12 12-31 12-43 0l-59-59 113-113z"/>
<glyph glyph-name="ico-border-horizontal" unicode="&#57348;" d="M0 0l57 0 0 57-57 0z m57 398l-57 0 0-57 57 0z m-57-284l57 0 0 57-57 0z m114-114l57 0 0 57-57 0z m-57 512l-57 0 0-57 57 0z m114 0l-57 0 0-57 57 0z m227 0l-57 0 0-57 57 0z m-114-114l-56 0 0-57 56 0z m0 114l-56 0 0-57 56 0z m171-398l57 0 0 57-57 0z m-227-114l56 0 0 57-56 0z m-228 228l512 0 0 56-512 0z m455 284l0-57 57 0 0 57z m0-171l57 0 0 57-57 0z m-227-227l56 0 0 57-56 0z m113-114l57 0 0 57-57 0z m114 0l57 0 0 57-57 0z"/>
<glyph glyph-name="ico-border-inner" unicode="&#57349;" d="M0 0l57 0 0 57-57 0z m114 0l57 0 0 57-57 0z m-57 398l-57 0 0-57 57 0z m-57-284l57 0 0 57-57 0z m171 398l-57 0 0-57 57 0z m-114 0l-57 0 0-57 57 0z m341 0l-57 0 0-57 57 0z m57-171l57 0 0 57-57 0z m0 171l0-57 57 0 0 57z m-114-512l57 0 0 57-57 0z m-57 512l-56 0 0-228-228 0 0-56 228 0 0-228 56 0 0 228 228 0 0 56-228 0z m171-512l57 0 0 57-57 0z m0 114l57 0 0 57-57 0z"/>
<glyph glyph-name="ico-border-left" unicode="&#57350;" d="M228 0l56 0 0 57-56 0z m0 114l56 0 0 57-56 0z m0 341l56 0 0 57-56 0z m0-114l56 0 0 57-56 0z m0-113l56 0 0 56-56 0z m-114-228l57 0 0 57-57 0z m0 455l57 0 0 57-57 0z m0-227l57 0 0 56-57 0z m-114-228l57 0 0 512-57 0z m455 341l57 0 0 57-57 0z m-114-341l57 0 0 57-57 0z m114 114l57 0 0 57-57 0z m0 398l0-57 57 0 0 57z m0-284l57 0 0 56-57 0z m0-228l57 0 0 57-57 0z m-114 228l57 0 0 56-57 0z m0 227l57 0 0 57-57 0z"/>
<glyph glyph-name="ico-border-outer" unicode="&#57351;" d="M284 398l-56 0 0-57 56 0z m0-114l-56 0 0-56 56 0z m114 0l-57 0 0-56 57 0z m-398 228l0-512 512 0 0 512z m455-455l-398 0 0 398 398 0z m-171 114l-56 0 0-57 56 0z m-113 113l-57 0 0-56 57 0z"/>
<glyph glyph-name="ico-border-right" unicode="&#57352;" d="M114 0l57 0 0 57-57 0z m-114 455l57 0 0 57-57 0z m114 0l57 0 0 57-57 0z m0-227l57 0 0 56-57 0z m-114-228l57 0 0 57-57 0z m228 0l56 0 0 57-56 0z m-228 228l57 0 0 56-57 0z m0-114l57 0 0 57-57 0z m0 227l57 0 0 57-57 0z m228-227l56 0 0 57-56 0z m113 114l57 0 0 56-57 0z m114 284l0-512 57 0 0 512z m-114-512l57 0 0 57-57 0z m0 455l57 0 0 57-57 0z m-113-227l56 0 0 56-56 0z m0 227l56 0 0 57-56 0z m0-114l56 0 0 57-56 0z"/>
<glyph glyph-name="ico-border-style" unicode="&#57353;" d="M341 0l57 0 0 57-57 0z m114 0l57 0 0 57-57 0z m-341 0l57 0 0 57-57 0z m114 0l56 0 0 57-56 0z m227 114l57 0 0 57-57 0z m0 114l57 0 0 56-57 0z m-455 284l0-512 57 0 0 455 455 0 0 57z m455-171l57 0 0 57-57 0z"/>
<glyph glyph-name="ico-border-top" unicode="&#57354;" d="M114 0l57 0 0 57-57 0z m0 228l57 0 0 56-57 0z m114 0l56 0 0 56-56 0z m0-228l56 0 0 57-56 0z m-228 114l57 0 0 57-57 0z m0-114l57 0 0 57-57 0z m0 228l57 0 0 56-57 0z m0 113l57 0 0 57-57 0z m228-227l56 0 0 57-56 0z m227 227l57 0 0 57-57 0z m0-113l57 0 0 56-57 0z m-455 284l0-57 512 0 0 57z m455-398l57 0 0 57-57 0z m-114-114l57 0 0 57-57 0z m-113 341l56 0 0 57-56 0z m227-341l57 0 0 57-57 0z m-114 228l57 0 0 56-57 0z"/>
<glyph glyph-name="ico-border-vertical" unicode="&#57355;" d="M0 341l57 0 0 57-57 0z m0 114l57 0 0 57-57 0z m114-455l57 0 0 57-57 0z m0 228l57 0 0 56-57 0z m-114 0l57 0 0 56-57 0z m0-228l57 0 0 57-57 0z m0 114l57 0 0 57-57 0z m114 341l57 0 0 57-57 0z m341-341l57 0 0 57-57 0z m-227-114l56 0 0 512-56 0z m227 0l57 0 0 57-57 0z m0 228l57 0 0 56-57 0z m0 284l0-57 57 0 0 57z m0-171l57 0 0 57-57 0z m-114 114l57 0 0 57-57 0z m0-455l57 0 0 57-57 0z m0 228l57 0 0 56-57 0z"/>
<glyph glyph-name="ico-brightness-1" unicode="&#57356;" d="M512 256c0-141-115-256-256-256-141 0-256 115-256 256 0 141 115 256 256 256 141 0 256-115 256-256z"/>
<glyph glyph-name="ico-brightness-2" unicode="&#57357;" d="M192 512c-47 0-90-13-128-35 77-44 128-126 128-221 0-95-51-177-128-221 38-22 81-35 128-35 141 0 256 115 256 256 0 141-115 256-256 256z"/>
<glyph glyph-name="ico-brightness-3" unicode="&#57358;" d="M173 512c-27 0-53-4-77-12 104-32 179-129 179-244 0-115-75-212-179-244 24-8 50-12 77-12 141 0 256 115 256 256 0 141-115 256-256 256z"/>
<glyph glyph-name="ico-brightness-4" unicode="&#57359;" d="M437 331l0 106-106 0-75 75-75-75-106 0 0-106-75-75 75-75 0-106 106 0 75-75 75 75 106 0 0 106 75 75z m-181-211c-20 0-39 5-57 13 47 21 80 68 80 123 0 55-33 102-80 123 18 8 37 13 57 13 75 0 136-61 136-136 0-75-61-136-136-136z"/>
<glyph glyph-name="ico-brightness-5" unicode="&#57360;" d="M437 181l75 75-75 75 0 106-106 0-75 75-75-75-106 0 0-106-75-75 75-75 0-106 106 0 75-75 75 75 106 0z m-181-61c-75 0-136 61-136 136 0 75 61 136 136 136 75 0 136-61 136-136 0-75-61-136-136-136z"/>
<glyph glyph-name="ico-brightness-6" unicode="&#57361;" d="M437 181l75 75-75 75 0 106-106 0-75 75-75-75-106 0 0-106-75-75 75-75 0-106 106 0 75-75 75 75 106 0z m-181-61l0 272c75 0 136-61 136-136 0-75-61-136-136-136z"/>
<glyph glyph-name="ico-brightness-7" unicode="&#57362;" d="M437 331l0 106-106 0-75 75-75-75-106 0 0-106-75-75 75-75 0-106 106 0 75-75 75 75 106 0 0 106 75 75z m-181-211c-75 0-136 61-136 136 0 75 61 136 136 136 75 0 136-61 136-136 0-75-61-136-136-136z m0 227c-50 0-91-41-91-91 0-50 41-91 91-91 50 0 91 41 91 91 0 50-41 91-91 91z"/>
<glyph glyph-name="ico-brightness-auto" unicode="&#57363;" d="M230 241l52 0-26 83z m207 90l0 106-106 0-75 75-75-75-106 0 0-106-75-75 75-75 0-106 106 0 75-75 75 75 106 0 0 106 75 75z m-129-166l-16 46-72 0-16-46-43 0 72 204 46 0 72-204z"/>
<glyph glyph-name="ico-brightness-high" unicode="&#57364;" d="M437 331l0 106-106 0-75 75-75-75-106 0 0-106-75-75 75-75 0-106 106 0 75-75 75 75 106 0 0 106 75 75z m-181-211c-75 0-136 61-136 136 0 75 61 136 136 136 75 0 136-61 136-136 0-75-61-136-136-136z m0 227c-50 0-91-41-91-91 0-50 41-91 91-91 50 0 91 41 91 91 0 50-41 91-91 91z"/>
<glyph glyph-name="ico-brightness-low" unicode="&#57365;" d="M437 181l75 75-75 75 0 106-106 0-75 75-75-75-106 0 0-106-75-75 75-75 0-106 106 0 75-75 75 75 106 0z m-181-61c-75 0-136 61-136 136 0 75 61 136 136 136 75 0 136-61 136-136 0-75-61-136-136-136z"/>
<glyph glyph-name="ico-brightness-medium" unicode="&#57366;" d="M437 181l75 75-75 75 0 106-106 0-75 75-75-75-106 0 0-106-75-75 75-75 0-106 106 0 75-75 75 75 106 0z m-181-61l0 272c75 0 136-61 136-136 0-75-61-136-136-136z"/>
<glyph glyph-name="ico-broken-image" unicode="&#57367;" d="M512 455l0-187-85 85-114-114-114 114-114-114-85 86 0 130c0 31 26 57 57 57l398 0c31 0 57-26 57-57z m-85-183l85-85 0-130c0-31-26-57-57-57l-398 0c-31 0-57 26-57 57l0 187 85-85 114 114 114-114z"/>
<glyph glyph-name="ico-brush" unicode="&#57368;" d="M135 216c-45 0-81-37-81-81 0-36-31-54-54-54 25-33 67-54 108-54 59 0 108 48 108 108 0 44-37 81-81 81z m369 252l-36 36c-10 11-27 11-38 0l-241-241 74-74 241 241c11 11 11 28 0 38z"/>
<glyph glyph-name="ico-bug-report" unicode="&#57369;" d="M487 370l-80 0c-13 22-30 41-52 56l47 46-40 40-62-62c-13 3-27 5-40 5-14 0-28-2-41-5l-62 62-40-40 46-46c-21-15-38-34-51-56l-80 0 0-57 59 0c-1-9-2-19-2-29l0-28-57 0 0-57 57 0 0-28c0-10 1-19 2-29l-59 0 0-57 80 0c30-51 84-85 148-85 63 0 118 34 147 85l80 0 0 57-59 0c1 10 2 19 2 29l0 28 57 0 0 57-57 0 0 28c0 10-1 20-2 29l59 0z m-171-228l-113 0 0 57 113 0z m0 114l-113 0 0 57 113 0z"/>
<glyph glyph-name="ico-build" unicode="&#57370;" d="M505 96l-211 212c21 53 9 116-35 160-47 46-116 56-172 30l100-100-70-70-102 100c-28-55-16-125 30-172 44-44 107-55 161-34l211-212c9-9 23-9 33 0l53 54c12 9 12 25 2 32z"/>
<glyph glyph-name="ico-bullhorn-1" unicode="&#57371;" d="M263 375l-210 0c-29 0-53-24-53-53l0-105c0-29 24-52 53-52l26 0 0-105c0-15 12-26 26-26l53 0c14 0 26 11 26 26l0 105 79 0 131-105 0 420z m249-105c0-45-25-86-66-105l0 210c41-20 66-60 66-105z"/>
<glyph glyph-name="ico-business" unicode="&#57372;" d="M256 378l0 102-256 0 0-461 512 0 0 359z m-154-308l-51 0 0 52 51 0z m0 103l-51 0 0 51 51 0z m0 102l-51 0 0 51 51 0z m0 103l-51 0 0 51 51 0z m103-308l-51 0 0 52 51 0z m0 103l-51 0 0 51 51 0z m0 102l-51 0 0 51 51 0z m0 103l-51 0 0 51 51 0z m256-308l-205 0 0 52 51 0 0 51-51 0 0 51 51 0 0 51-51 0 0 51 205 0z m-51 205l-52 0 0-51 52 0z m0-102l-52 0 0-51 52 0z"/>
<glyph glyph-name="ico-business-center" unicode="&#57373;" d="M205 147l0 26-179 0 0-103c0-28 22-51 51-51l358 0c29 0 51 23 51 51l0 103-179 0 0-26z m256 231l-103 0 0 51-51 51-102 0-52-51 0-51-102 0c-28 0-51-23-51-52l0-76c0-29 23-52 51-52l154 0 0 52 102 0 0-52 154 0c28 0 51 23 51 52l0 76c0 29-23 52-51 52z m-154 0l-102 0 0 51 102 0z"/>
<glyph glyph-name="ico-cached" unicode="&#57374;" d="M419 355l-93-93 70 0c0-77-63-140-140-140-24 0-46 6-65 16l-34-34c28-18 62-28 99-28 103 0 186 83 186 186l70 0z m-303-93c0 77 63 139 140 139 24 0 46-5 65-16l34 34c-28 18-62 29-99 29-103 0-186-83-186-186l-70 0 93-93 93 93z"/>
<glyph glyph-name="ico-cake" unicode="&#57375;" d="M256 372c24 0 43 21 43 47 0 9-2 17-7 24l-36 69-36-69c-5-7-7-15-7-24 0-26 20-47 43-47z m98-232l-23 25-23-25c-27-30-76-31-104 0l-23 25-23-25c-14-15-33-24-52-24-16 0-30 6-42 15l0-108c0-13 10-23 21-23l342 0c11 0 21 10 21 23l0 108c-12-9-26-15-42-15-19 0-38 9-52 24z m30 163l-107 0 0 46-42 0 0-46-107 0c-35 0-64-32-64-70l0-36c0-25 19-46 42-46 11 0 22 5 29 14l46 49 45-49c16-18 44-18 59 0l46 49 46-49c7-9 18-14 29-14 23 0 42 21 42 46l0 36c0 38-29 70-64 70z"/>
<glyph glyph-name="ico-calendar-today" unicode="&#57376;" d="M451 465l-23 0 0 47-47 0 0-47-233 0 0 47-46 0 0-47-23 0c-26 0-47-20-47-46l0-372c0-26 21-47 47-47l372 0c26 0 46 21 46 47l0 372c0 26-20 46-46 46z m0-418l-372 0 0 302 372 0z"/>
<glyph glyph-name="ico-call" unicode="&#57377;" d="M103 290c41-80 107-146 187-187l63 63c8 7 19 10 29 6 32-10 66-16 102-16 15 0 28-13 28-28l0-100c0-15-13-28-28-28-268 0-484 216-484 484 0 15 13 28 28 28l100 0c16 0 28-13 28-28 0-36 6-70 17-102 3-10 1-21-7-29z"/>
<glyph glyph-name="ico-call-end" unicode="&#57378;" d="M256 320c-34 0-67-5-98-15l0-66c0-9-5-16-12-20-21-10-40-24-57-39-4-4-9-6-15-6-6 0-11 2-15 6l-53 53c-4 4-6 9-6 15 0 6 2 11 6 15 65 62 153 100 250 100 97 0 185-38 250-100 4-4 6-9 6-15 0-6-2-11-6-15l-53-53c-4-4-9-6-15-6-6 0-11 2-15 6-17 15-36 29-57 39-7 4-12 11-12 19l0 66c-31 11-64 16-98 16z"/>
<glyph glyph-name="ico-call-made" unicode="&#57379;" d="M171 512l0-68 225 0-396-396 48-48 396 396 0-225 68 0 0 341z"/>
<glyph glyph-name="ico-call-merge" unicode="&#57380;" d="M409 0l43 43-103 103-43-43z m-287 376l106 0 0-170-164-163 43-43 181 182 0 194 106 0-136 136z"/>
<glyph glyph-name="ico-call-missed" unicode="&#57381;" d="M472 416l-216-216-159 159 131 0 0 57-228 0 0-228 57 0 0 131 199-199 256 256z"/>
<glyph glyph-name="ico-call-missed-outgoing" unicode="&#57382;" d="M0 376l256-256 199 199 0-131 57 0 0 228-228 0 0-57 131 0-159-159-216 216z"/>
<glyph glyph-name="ico-call-received" unicode="&#57383;" d="M512 464l-48 48-396-396 0 225-68 0 0-341 341 0 0 68-225 0z"/>
<glyph glyph-name="ico-call-split" unicode="&#57384;" d="M320 512l73-73-92-92 46-46 92 92 73-73 0 192z m-128 0l-192 0 0-192 73 73 151-150 0-243 64 0 0 269-169 170z"/>
<glyph glyph-name="ico-camera" unicode="&#57385;" d="M189 294l123 212c-18 4-37 6-56 6-61 0-118-22-162-58l94-162z m311 39c-23 75-80 134-153 162l-94-162z m7-26l-192 0 8-13 121-211c42 46 68 106 68 173 0 18-2 35-5 51z m-340-51l-99 173c-42-46-68-106-68-173 0-18 2-35 5-51l192 0z m-155-77c23-75 80-134 153-162l94 162z m288 0l-100-173c18-4 37-6 56-6 61 0 118 22 162 58l-94 162z"/>
<glyph glyph-name="ico-camera-alt" unicode="&#57386;" d="M179 480l-47-51-81 0c-28 0-51-23-51-51l0-308c0-28 23-51 51-51l410 0c28 0 51 23 51 51l0 308c0 28-23 51-51 51l-81 0-47 51z m77-384c-71 0-128 57-128 128 0 71 57 128 128 128 71 0 128-57 128-128 0-71-57-128-128-128z m0 46c45 0 82 37 82 82 0 45-37 82-82 82-45 0-82-37-82-82 0-45 37-82 82-82z"/>
<glyph glyph-name="ico-camera-enhance" unicode="&#57387;" d="M179 480l154 0 47-51 81 0c28 0 51-23 51-51l0-308c0-28-23-51-51-51l-410 0c-28 0-51 23-51 51l0 308c0 28 23 51 51 51l81 0z m77-384c71 0 128 57 128 128 0 71-57 128-128 128-71 0-128-57-128-128 0-71 57-128 128-128z m0 26l-32 70-70 32 70 32 32 70 32-70 70-32-70-32z"/>
<glyph glyph-name="ico-camera-front" unicode="&#57388;" d="M213 85l-106 0 0-42 106 0 0-43 64 64-64 64z m86 0l0-42 106 0 0 42z m-43 256c23 0 43 20 43 43 0 23-20 43-43 43-23 0-42-20-42-43 0-23 19-43 42-43z m107 171l-214 0c-23 0-42-19-42-43l0-298c0-24 19-43 42-43l214 0c23 0 42 19 42 43l0 298c0 24-19 43-42 43z m-214-43l214 0 0-224c0 36-71 54-107 54-36 0-107-18-107-54z"/>
<glyph glyph-name="ico-camera-rear" unicode="&#57389;" d="M213 85l-106 0 0-42 106 0 0-43 64 64-64 64z m86 0l0-42 106 0 0 42z m64 427l-214 0c-23 0-42-19-42-43l0-298c0-24 19-43 42-43l214 0c23 0 42 19 42 43l0 298c0 24-19 43-42 43z m-107-128c-24 0-43 19-43 43 0 23 19 42 43 42 23 0 42-19 42-42 1-24-19-43-42-43z"/>
<glyph glyph-name="ico-camera-roll" unicode="&#57390;" d="M293 414c0 27-22 49-49 49l-25 0 0 25c0 13-11 24-24 24l-97 0c-14 0-25-11-25-24l0-25-24 0c-27 0-49-22-49-49l0-365c0-27 22-49 49-49l195 0c27 0 49 22 49 49l195 0 0 365z m-49-316l-49 0 0 48 49 0z m0 219l-49 0 0 49 49 0z m97-219l-48 0 0 48 48 0z m0 219l-48 0 0 49 48 0z m98-219l-49 0 0 48 49 0z m0 219l-49 0 0 49 49 0z"/>
<glyph glyph-name="ico-cancel" unicode="&#57391;" d="M256 512c-142 0-256-114-256-256 0-142 114-256 256-256 142 0 256 114 256 256 0 142-114 256-256 256z m128-348l-36-36-92 92-92-92-36 36 92 92-92 92 36 36 92-92 92 92 36-36-92-92z"/>
<glyph glyph-name="ico-card-giftcard" unicode="&#57392;" d="M461 410l-56 0c3 8 5 16 5 25 0 43-35 77-77 77-27 0-50-14-64-35l-13-17-13 18c-14 20-37 34-64 34-42 0-77-34-77-77 0-9 2-17 5-25l-56 0c-28 0-51-23-51-52l0-281c0-29 23-51 51-51l410 0c28 0 51 22 51 51l0 281c0 29-23 52-51 52z m-128 51c14 0 25-12 25-26 0-14-11-25-25-25-14 0-26 11-26 25 0 14 12 26 26 26z m-154 0c14 0 26-12 26-26 0-14-12-25-26-25-14 0-25 11-25 25 0 14 11 26 25 26z m282-384l-410 0 0 51 410 0z m0 128l-410 0 0 153 130 0-53-72 41-30 61 83 26 35 26-35 61-83 41 30-53 72 130 0z"/>
<glyph glyph-name="ico-card-membership" unicode="&#57393;" d="M461 512l-410 0c-28 0-51-23-51-51l0-282c0-28 23-51 51-51l103 0 0-128 102 51 102-51 0 128 103 0c28 0 51 23 51 51l0 282c0 28-23 51-51 51z m0-333l-410 0 0 51 410 0z m0 128l-410 0 0 154 410 0z"/>
<glyph glyph-name="ico-card-travel" unicode="&#57394;" d="M461 410l-77 0 0 51c0 28-23 51-51 51l-154 0c-28 0-51-23-51-51l0-51-77 0c-28 0-51-23-51-52l0-281c0-29 23-51 51-51l410 0c28 0 51 22 51 51l0 281c0 29-23 52-51 52z m-282 51l154 0 0-51-154 0z m282-384l-410 0 0 51 410 0z m0 128l-410 0 0 153 77 0 0-51 51 0 0 51 154 0 0-51 51 0 0 51 77 0z"/>
<glyph glyph-name="ico-cash" unicode="&#57395;" d="M0 416l512 0 0-352-512 0z m256-88c47 0 85-39 85-88 0-49-38-88-85-88-47 0-85 39-85 88 0 49 38 88 85 88z m-142 29c0-32-26-58-57-58l0-118c31 0 57-26 57-58l284 0c0 32 26 58 57 58l0 118c-31 0-57 26-57 58z"/>
<glyph glyph-name="ico-casino" unicode="&#57396;" d="M455 512l-398 0c-31 0-57-26-57-57l0-398c0-31 26-57 57-57l398 0c31 0 57 26 57 57l0 398c0 31-26 57-57 57z m-327-427c-24 0-43 19-43 43 0 24 19 43 43 43 24 0 43-19 43-43 0-24-19-43-43-43z m0 256c-24 0-43 19-43 43 0 24 19 43 43 43 24 0 43-19 43-43 0-24-19-43-43-43z m128-128c-24 0-43 19-43 43 0 24 19 43 43 43 24 0 43-19 43-43 0-24-19-43-43-43z m128-128c-24 0-43 19-43 43 0 24 19 43 43 43 24 0 43-19 43-43 0-24-19-43-43-43z m0 256c-24 0-43 19-43 43 0 24 19 43 43 43 24 0 43-19 43-43 0-24-19-43-43-43z"/>
<glyph glyph-name="ico-cast" unicode="&#57397;" d="M465 480l-418 0c-26 0-47-21-47-47l0-69 47 0 0 69 418 0 0-325-162 0 0-47 162 0c26 0 47 21 47 47l0 325c0 26-21 47-47 47z m-465-349l0-70 70 0c0 39-31 70-70 70z m0 93l0-47c64 0 116-52 116-116l47 0c0 90-73 163-163 163z m0 93l0-46c116 0 209-94 209-210l47 0c0 142-115 256-256 256z"/>
<glyph glyph-name="ico-cast-connected" unicode="&#57398;" d="M0 131l0-70 70 0c0 39-31 70-70 70z m0 93l0-47c64 0 116-52 116-116l47 0c0 90-73 163-163 163z m419 163l-326 0 0-38c92-30 165-103 195-195l131 0z m-419-70l0-46c116 0 209-94 209-210l47 0c0 142-115 256-256 256z m465 163l-418 0c-26 0-47-21-47-47l0-69 47 0 0 69 418 0 0-325-162 0 0-47 162 0c26 0 47 21 47 47l0 325c0 26-21 47-47 47z"/>
<glyph glyph-name="ico-center-focus-strong" unicode="&#57399;" d="M256 370c-63 0-114-51-114-114 0-63 51-114 114-114 63 0 114 51 114 114 0 63-51 114-114 114z m-199-199l-57 0 0-114c0-31 26-57 57-57l114 0 0 57-114 0z m0 284l114 0 0 57-114 0c-31 0-57-26-57-57l0-114 57 0z m398 57l-114 0 0-57 114 0 0-114 57 0 0 114c0 31-26 57-57 57z m0-455l-114 0 0-57 114 0c31 0 57 26 57 57l0 114-57 0z"/>
<glyph glyph-name="ico-center-focus-weak" unicode="&#57400;" d="M57 171l-57 0 0-114c0-31 26-57 57-57l114 0 0 57-114 0z m0 284l114 0 0 57-114 0c-31 0-57-26-57-57l0-114 57 0z m398 57l-114 0 0-57 114 0 0-114 57 0 0 114c0 31-26 57-57 57z m0-455l-114 0 0-57 114 0c31 0 57 26 57 57l0 114-57 0z m-199 313c-63 0-114-51-114-114 0-63 51-114 114-114 63 0 114 51 114 114 0 63-51 114-114 114z m0-171c-31 0-57 26-57 57 0 31 26 57 57 57 31 0 57-26 57-57 0-31-26-57-57-57z"/>
<glyph glyph-name="ico-change-history" unicode="&#57401;" d="M256 351l164-261-328 0z m0 97l-256-410 512 0z"/>
<glyph glyph-name="ico-chat" unicode="&#57402;" d="M461 512l-410 0c-28 0-51-23-51-51l0-461 102 102 359 0c28 0 51 23 51 52l0 307c0 28-23 51-51 51z m-359-179l308 0 0-51-308 0z m205-128l-205 0 0 51 205 0z m103 153l-308 0 0 52 308 0z"/>
<glyph glyph-name="ico-chat-bubble" unicode="&#57403;" d="M461 512l-410 0c-28 0-51-23-51-51l0-461 102 102 359 0c28 0 51 23 51 52l0 307c0 28-23 51-51 51z"/>
<glyph glyph-name="ico-chat-bubble-outline" unicode="&#57404;" d="M461 512l-410 0c-28 0-51-23-51-51l0-461 102 102 359 0c28 0 51 23 51 52l0 307c0 28-23 51-51 51z m0-358l-359 0-51-52 0 359 410 0z"/>
<glyph glyph-name="ico-check" unicode="&#57405;" d="M163 140l-122 121-41-41 163-162 349 349-41 41z"/>
<glyph glyph-name="ico-check-box" unicode="&#57406;" d="M455 512l-398 0c-32 0-57-26-57-57l0-398c0-31 25-57 57-57l398 0c32 0 57 26 57 57l0 398c0 31-25 57-57 57z m-256-398l-142 142 40 40 102-102 216 216 40-40z"/>
<glyph glyph-name="ico-check-box-outline-blank" unicode="&#57407;" d="M455 455l0-398-398 0 0 398z m0 57l-398 0c-31 0-57-26-57-57l0-398c0-31 26-57 57-57l398 0c31 0 57 26 57 57l0 398c0 31-26 57-57 57z"/>
<glyph glyph-name="ico-check-circle" unicode="&#57408;" d="M256 512c-141 0-256-115-256-256 0-141 115-256 256-256 141 0 256 115 256 256 0 141-115 256-256 256z m-51-384l-128 128 36 36 92-92 194 195 36-37z"/>
<glyph glyph-name="ico-chevron-left" unicode="&#57409;" d="M412 452l-60 60-256-256 256-256 60 60-195 196z"/>
<glyph glyph-name="ico-chevron-right" unicode="&#57410;" d="M156 512l-60-60 195-196-195-196 60-60 256 256z"/>
<glyph glyph-name="ico-child-care" unicode="&#57411;" d="M511 255c1 5 1 10 1 16 0 5 0 10-1 15-6 35-32 64-66 74-12 26-30 49-51 67-37 33-85 53-138 53-53 0-101-20-138-53-22-18-39-41-51-67-34-10-60-39-66-74-1-5-1-10-1-15 0-6 0-11 1-16 6-35 32-64 66-74 12-25 29-48 50-67 37-33 86-53 139-53 53 0 102 20 139 53 21 19 38 42 50 67 34 10 60 39 66 74z m-92-31c-2 0-5 0-7 1-4-16-11-30-20-44-29-44-79-73-136-73-57 0-107 29-136 73-9 14-16 28-20 44-2-1-5-1-7-1-26 0-46 21-46 47 0 25 20 46 46 46 2 0 5 0 7-1 4 16 11 30 20 44 29 44 79 73 136 73 57 0 107-29 136-73 9-14 16-28 20-44 2 1 5 1 7 1 26 0 46-21 46-46 0-26-20-47-46-47z m-268 0l210 0c-18-41-58-70-105-70-47 0-87 29-105 70z m163 52c-16 0-29 13-29 29 0 17 13 30 29 30 16 0 29-13 29-30 0-16-13-29-29-29z m-116 0c-16 0-29 13-29 29 0 17 13 30 29 30 16 0 29-13 29-30 0-16-13-29-29-29z"/>
<glyph glyph-name="ico-child-friendly" unicode="&#57412;" d="M282 512l0-205 204 0c0 113-91 205-204 205z m204-230l-372 0-25 51-89 0 0-51 57 0c32-70 50-108 54-114-28-15-47-44-47-78 0-50 40-90 90-90 45 0 82 33 88 77l53 0c7-44 44-77 89-77 49 0 90 40 90 90 0 26-12 50-31 66 27 35 43 78 43 126z m-332-231c-22 0-39 17-39 39 0 21 17 38 39 38 21 0 38-17 38-38 0-22-17-39-38-39z m230 0c-21 0-38 17-38 39 0 21 17 38 38 38 21 0 38-17 38-38 0-22-17-39-38-39z"/>
<glyph glyph-name="ico-chrome-reader-mode" unicode="&#57413;" d="M279 262l163 0 0-35-163 0z m0 58l163 0 0-35-163 0z m0-116l163 0 0-35-163 0z m186 244l-418 0c-26 0-47-21-47-47l0-302c0-26 21-47 47-47l418 0c26 0 47 21 47 47l0 302c0 26-21 47-47 47z m0-349l-209 0 0 302 209 0z"/>
<glyph glyph-name="ico-class" unicode="&#57414;" d="M422 512l-307 0c-28 0-51-23-51-51l0-410c0-28 23-51 51-51l307 0c29 0 52 23 52 51l0 410c0 28-23 51-52 51z m-307-51l128 0 0-205-64 38-64-38z"/>
<glyph glyph-name="ico-clear" unicode="&#57415;" d="M512 460l-52 52-204-204-204 204-52-52 204-204-204-204 52-52 204 204 204-204 52 52-204 204z"/>
<glyph glyph-name="ico-clear-all" unicode="&#57416;" d="M57 213l398 0 0 57-398 0z m-57-113l398 0 0 56-398 0z m114 284l0-57 398 0 0 57z"/>
<glyph glyph-name="ico-close" unicode="&#57417;" d="M512 460l-52 52-204-204-204 204-52-52 204-204-204-204 52-52 204 204 204-204 52 52-204 204z"/>
<glyph glyph-name="ico-closed-caption" unicode="&#57418;" d="M455 480l-398 0c-32 0-57-26-57-57l0-341c0-32 25-57 57-57l398 0c31 0 57 25 57 57l0 341c0 31-26 57-57 57z m-227-199l-43 0 0 14-57 0 0-85 57 0 0 14 43 0 0-28c0-16-13-29-29-29l-85 0c-16 0-29 13-29 29l0 113c0 16 13 29 29 29l85 0c16 0 29-13 29-29z m199 0l-43 0 0 14-57 0 0-85 57 0 0 14 43 0 0-28c0-16-13-29-29-29l-85 0c-16 0-29 13-29 29l0 113c0 16 13 29 29 29l85 0c16 0 29-13 29-29z"/>
<glyph glyph-name="ico-cloud" unicode="&#57419;" d="M413 298c-15 73-79 129-157 129-62 0-115-35-142-87-64-6-114-61-114-127 0-70 57-128 128-128l277 0c59 0 107 48 107 107 0 56-44 102-99 106z"/>
<glyph glyph-name="ico-cloud-circle" unicode="&#57420;" d="M256 512c-141 0-256-115-256-256 0-141 115-256 256-256 141 0 256 115 256 256 0 141-115 256-256 256z m115-358l-217 0c-43 0-77 34-77 76 0 43 34 77 77 77l3 0c11 44 51 77 99 77 57 0 102-46 102-102l13 0c36 0 64-29 64-64 0-36-28-64-64-64z"/>
<glyph glyph-name="ico-cloud-done" unicode="&#57421;" d="M413 298c-15 73-79 129-157 129-62 0-115-35-142-87-64-6-114-61-114-127 0-70 57-128 128-128l277 0c59 0 107 48 107 107 0 56-44 102-99 106z m-200-149l-74 75 30 30 44-44 111 110 30-30z"/>
<glyph glyph-name="ico-cloud-download" unicode="&#57422;" d="M413 298c-15 73-79 129-157 129-62 0-115-35-142-87-64-6-114-61-114-127 0-70 57-128 128-128l277 0c59 0 107 48 107 107 0 56-44 102-99 106z m-50-63l-107-107-107 107 64 0 0 85 86 0 0-85z"/>
<glyph glyph-name="ico-cloud-off" unicode="&#57423;" d="M413 298c-15 73-79 129-157 129-32 0-61-10-86-25l32-31c16 8 34 13 54 13 65 0 117-52 117-117l0-11 32 0c36 0 64-29 64-64 0-24-13-45-33-56l31-31c27 20 45 51 45 87 0 56-44 102-99 106z m-349 102l59-59c-68-3-123-59-123-128 0-70 57-128 128-128l250 0 43-42 27 27-357 357z m101-101l171-171-208 0c-47 0-85 38-85 85 0 47 38 86 85 86z"/>
<glyph glyph-name="ico-cloud-queue" unicode="&#57424;" d="M413 298c-15 73-79 129-157 129-62 0-115-35-142-87-64-6-114-61-114-127 0-70 57-128 128-128l277 0c59 0 107 48 107 107 0 56-44 102-99 106z m-8-170l-277 0c-47 0-85 38-85 85 0 47 38 86 85 86l15 0c14 49 59 85 113 85 65 0 117-52 117-117l0-11 32 0c36 0 64-29 64-64 0-35-28-64-64-64z"/>
<glyph glyph-name="ico-cloud-upload" unicode="&#57425;" d="M413 298c-15 73-79 129-157 129-62 0-115-35-142-87-64-6-114-61-114-127 0-70 57-128 128-128l277 0c59 0 107 48 107 107 0 56-44 102-99 106z m-114-63l0-86-86 0 0 86-64 0 107 106 107-106z"/>
<glyph glyph-name="ico-code" unicode="&#57426;" d="M189 145l-117 117 117 118-35 36-154-154 154-153z m134 0l117 117-117 118 35 36 154-154-154-153z"/>
<glyph glyph-name="ico-collections" unicode="&#57427;" d="M512 154l0 307c0 28-23 51-51 51l-307 0c-29 0-52-23-52-51l0-307c0-29 23-52 52-52l307 0c28 0 51 23 51 52z m-282 102l52-69 76 95 103-128-307 0z m-230 154l0-359c0-28 23-51 51-51l359 0 0 51-359 0 0 359z"/>
<glyph glyph-name="ico-collections-bookmark" unicode="&#57428;" d="M461 512l-307 0c-29 0-52-23-52-51l0-307c0-29 23-52 52-52l307 0c28 0 51 23 51 52l0 307c0 28-23 51-51 51z m0-256l-64 38-64-38 0 205 128 0z m-410 154l0-359 359 0 0-51-359 0c-28 0-51 23-51 51l0 359z"/>
<glyph glyph-name="ico-color-lens" unicode="&#57429;" d="M256 512c-141 0-256-115-256-256 0-141 115-256 256-256 24 0 43 19 43 43 0 11-5 21-11 28-7 8-11 18-11 29 0 23 19 42 42 42l51 0c78 0 142 64 142 142 0 126-115 228-256 228z m-156-256c-24 0-43 19-43 43 0 23 19 42 43 42 23 0 42-19 42-42 0-24-19-43-42-43z m85 114c-24 0-43 19-43 42 0 24 19 43 43 43 23 0 43-19 43-43 0-23-20-42-43-42z m142 0c-23 0-43 19-43 42 0 24 20 43 43 43 24 0 43-19 43-43 0-23-19-42-43-42z m85-114c-23 0-42 19-42 43 0 23 19 42 42 42 24 0 43-19 43-42 0-24-19-43-43-43z"/>
<glyph glyph-name="ico-colorize" unicode="&#57430;" d="M504 437l-67 67c-11 11-29 11-40 0l-89-89-55 54-40-40 41-40-254-254 0-135 135 0 254 254 40-41 40 40-54 55 88 89c12 11 12 29 1 40z m-393-380l-54 54 229 230 55-55z"/>
<glyph glyph-name="ico-comment" unicode="&#57431;" d="M512 461c0 28-23 51-51 51l-410 0c-28 0-51-23-51-51l0-307c0-29 23-52 51-52l359 0 102-102z m-102-256l-308 0 0 51 308 0z m0 77l-308 0 0 51 308 0z m0 76l-308 0 0 52 308 0z"/>
<glyph glyph-name="ico-compare" unicode="&#57432;" d="M195 465l-116 0c-26 0-47-20-47-46l0-326c0-26 21-46 47-46l116 0 0-47 46 0 0 512-46 0z m0-349l-116 0 116 140z m209 349l-116 0 0-46 116 0 0-303-116 140 0-209 116 0c26 0 47 20 47 46l0 326c0 26-21 46-47 46z"/>
<glyph glyph-name="ico-compare-arrows" unicode="&#57433;" d="M179 218l-179 0 0-52 179 0 0-76 103 102-103 102z m154 25l0 77 179 0 0 51-179 0 0 77-103-102z"/>
<glyph glyph-name="ico-computer" unicode="&#57434;" d="M427 128c23 0 42 19 42 43l0 213c0 23-19 43-42 43l-342 0c-23 0-42-20-42-43l0-213c0-24 19-43 42-43l-85 0 0-43 512 0 0 43z m-342 256l342 0 0-213-342 0z"/>
<glyph glyph-name="ico-confirmation-number" unicode="&#57435;" d="M512 294l0 103c0 28-23 51-51 51l-410 0c-28 0-51-23-51-51l0-103c28 0 51-23 51-51 0-28-23-51-51-51l0-102c0-29 23-52 51-52l410 0c28 0 51 23 51 52l0 102c-28 0-51 23-51 51 0 28 23 51 51 51z m-230-192l-52 0 0 52 52 0z m0 116l-52 0 0 51 52 0z m0 115l-52 0 0 51 52 0z"/>
<glyph glyph-name="ico-contact-mail" unicode="&#57436;" d="M448 341l0 22-64-43-64 43 0-22 64-42z m21 107l-426 0c-24 0-43-19-43-43l0-298c0-24 19-43 43-43l426 0c24 0 43 19 43 43l0 298c0 24-19 43-43 43z m-298-64c35 0 64-29 64-64 0-35-29-64-64-64-36 0-64 29-64 64 0 35 28 64 64 64z m128-256l-256 0 0 21c0 43 85 66 128 66 42 0 128-23 128-66z m170 128l-170 0 0 128 170 0z"/>
<glyph glyph-name="ico-contact-phone" unicode="&#57437;" d="M469 448l-426 0c-24 0-43-19-43-43l0-298c0-24 19-43 43-43l426 0c24 0 43 19 43 43l0 298c0 24-19 43-43 43z m-298-64c35 0 64-29 64-64 0-35-29-64-64-64-36 0-64 29-64 64 0 35 28 64 64 64z m128-256l-256 0 0 21c0 43 85 66 128 66 42 0 128-23 128-66z m82 85l35 0 32-42-42-43c-28 21-49 51-59 85-4 14-6 28-6 43 0 15 2 29 6 43 10 34 31 64 59 85l42-43-32-42-35 0c-5-14-8-28-8-43 0-15 3-29 8-43z"/>
<glyph glyph-name="ico-contacts" unicode="&#57438;" d="M427 512l-342 0 0-43 342 0z m-342-512l342 0 0 43-342 0z m342 427l-342 0c-23 0-42-20-42-43l0-256c0-23 19-43 42-43l342 0c23 0 42 20 42 43l0 256c0 23-19 43-42 43z m-171-59c26 0 48-22 48-48 0-26-22-48-48-48-26 0-48 22-48 48 0 26 22 48 48 48z m107-219l-214 0 0 32c0 36 71 54 107 54 36 0 107-18 107-54z"/>
<glyph glyph-name="ico-content-copy" unicode="&#57439;" d="M358 512l-279 0c-26 0-47-21-47-47l0-325 47 0 0 325 279 0z m70-93l-256 0c-26 0-47-21-47-47l0-325c0-26 21-47 47-47l256 0c25 0 46 21 46 47l0 325c0 26-21 47-46 47z m0-372l-256 0 0 325 256 0z"/>
<glyph glyph-name="ico-content-cut" unicode="&#57440;" d="M196 368c5 12 9 26 9 42 0 56-46 102-103 102-56 0-102-46-102-102 0-57 46-103 102-103 16 0 30 4 42 9l61-60-61-60c-12 5-26 9-42 9-56 0-102-46-102-103 0-56 46-102 102-102 57 0 103 46 103 102 0 16-4 30-9 42l60 61 179-179 77 0 0 25z m-94-10c-28 0-51 23-51 52 0 28 23 51 51 51 29 0 52-23 52-51 0-29-23-52-52-52z m154-115c-7 0-13 6-13 13 0 7 6 13 13 13 7 0 13-6 13-13 0-7-6-13-13-13z m179 243l77 0 0-25-179-179-51 51z m-333-435c-28 0-51 23-51 51 0 29 23 52 51 52 29 0 52-23 52-52 0-28-23-51-52-51z m154 179c-14 0-26 12-26 26 0 14 12 26 26 26 14 0 26-12 26-26 0-14-12-26-26-26z"/>
<glyph glyph-name="ico-content-duplicate" unicode="&#57441;" d="M241 140l-162 0c-26 0-47 21-47 46l0 279c0 26 21 47 47 47l279 0 0-47-279 0 0-279 162 0 0 47 94-70-94-70z m187-93l0 325-256 0 0-139-47 0 0 139c0 26 21 47 47 47l256 0c25 0 46-21 46-47l0-325c0-26-21-47-46-47l-256 0c-26 0-47 21-47 47l0 46 47 0 0-46z"/>
<glyph glyph-name="ico-content-paste" unicode="&#57442;" d="M405 465l-89 0c-9 27-32 47-60 47-28 0-51-20-60-47l-89 0c-24 0-43-20-43-46l0-372c0-26 19-47 43-47l298 0c24 0 43 21 43 47l0 372c0 26-19 46-43 46z m-149 0c12 0 21-10 21-23 0-13-9-23-21-23-12 0-21 10-21 23 0 13 9 23 21 23z m149-418l-298 0 0 372 42 0 0-70 214 0 0 70 42 0z"/>
<glyph glyph-name="ico-control-point" unicode="&#57443;" d="M282 384l-52 0 0-102-102 0 0-52 102 0 0-102 52 0 0 102 102 0 0 52-102 0z m-26 128c-141 0-256-115-256-256 0-141 115-256 256-256 141 0 256 115 256 256 0 141-115 256-256 256z m0-461c-113 0-205 92-205 205 0 113 92 205 205 205 113 0 205-92 205-205 0-113-92-205-205-205z"/>
<glyph glyph-name="ico-control-point-duplicate" unicode="&#57444;" d="M341 341l-42 0 0-64-64 0 0-42 64 0 0-64 42 0 0 64 64 0 0 42-64 0z m-298-85c0 60 35 111 85 135l0 46c-74-27-128-98-128-181 0-83 54-154 128-181l0 46c-50 24-85 75-85 135z m277 192c-106 0-192-86-192-192 0-106 86-192 192-192 106 0 192 86 192 192 0 106-86 192-192 192z m0-341c-82 0-149 67-149 149 0 82 67 149 149 149 82 0 149-67 149-149 0-82-67-149-149-149z"/>
<glyph glyph-name="ico-copyright" unicode="&#57445;" d="M207 285c1 9 4 16 8 22 3 7 8 12 15 16 6 4 13 6 23 6 6 0 11-1 16-3 5-2 10-5 13-9 4-4 7-9 9-14 2-5 3-11 4-16l45 0c0 12-2 23-7 33-4 10-10 18-18 26-7 7-17 12-27 16-11 5-23 6-36 6-16 0-31-2-43-8-13-6-23-14-31-24-8-10-14-21-18-35-4-13-6-27-6-42l0-7c0-14 2-28 5-42 4-13 10-24 19-34 8-10 18-18 30-23 13-6 27-9 44-9 12 0 23 2 34 6 10 4 19 9 27 16 8 7 15 15 19 24 5 9 8 19 8 29l-46 0c0-5-1-10-4-14-2-5-5-9-9-12-4-4-8-6-13-8-5-2-10-2-16-2-9 0-16 2-22 5-7 5-12 10-15 16-4 7-7 14-8 23-1 8-2 17-2 25l0 7c0 9 1 18 2 26z m49 227c-141 0-256-115-256-256 0-141 115-256 256-256 141 0 256 115 256 256 0 141-115 256-256 256z m0-461c-113 0-205 92-205 205 0 113 92 205 205 205 113 0 205-92 205-205 0-113-92-205-205-205z"/>
<glyph glyph-name="ico-create" unicode="&#57446;" d="M0 107l0-107 107 0 314 315-106 106z m504 290c11 11 11 29 0 40l-67 67c-11 11-29 11-40 0l-52-52 107-107z"/>
<glyph glyph-name="ico-create-new-folder" unicode="&#57447;" d="M461 397l-205 0-51 51-154 0c-28 0-51-23-51-51l0-307c0-29 23-52 51-52l410 0c28 0 51 23 51 52l0 256c0 28-23 51-51 51z m-26-205l-77 0 0-77-51 0 0 77-77 0 0 51 77 0 0 77 51 0 0-77 77 0z"/>
<glyph glyph-name="ico-credit-card" unicode="&#57448;" d="M461 448l-410 0c-28 0-51-23-51-51l0-307c0-29 23-52 51-52l410 0c28 0 51 23 51 52l0 307c0 28-23 51-51 51z m0-358l-410 0 0 153 410 0z m0 256l-410 0 0 51 410 0z"/>
<glyph glyph-name="ico-crop" unicode="&#57449;" d="M372 186l47 0 0 186c0 26-21 47-47 47l-186 0 0-47 186 0z m-232-46l0 372-47 0 0-93-93 0 0-47 93 0 0-232c0-26 21-47 47-47l232 0 0-93 47 0 0 93 93 0 0 47z"/>
<glyph glyph-name="ico-crop-3-2" unicode="&#57450;" d="M455 480l-398 0c-31 0-57-26-57-57l0-341c0-32 26-57 57-57l398 0c31 0 57 25 57 57l0 341c0 31-26 57-57 57z m0-398l-398 0 0 341 398 0z"/>
<glyph glyph-name="ico-crop-5-4" unicode="&#57451;" d="M455 448l-398 0c-31 0-57-26-57-57l0-284c0-32 26-57 57-57l398 0c31 0 57 25 57 57l0 284c0 31-26 57-57 57z m0-341l-398 0 0 284 398 0z"/>
<glyph glyph-name="ico-crop-7-5" unicode="&#57452;" d="M455 384l-398 0c-31 0-57-26-57-57l0-171c0-31 26-56 57-56l398 0c31 0 57 25 57 56l0 171c0 31-26 57-57 57z m0-228l-398 0 0 171 398 0z"/>
<glyph glyph-name="ico-crop-16-9" unicode="&#57453;" d="M455 416l-398 0c-31 0-57-26-57-57l0-227c0-32 26-57 57-57l398 0c31 0 57 25 57 57l0 227c0 31-26 57-57 57z m0-284l-398 0 0 227 398 0z"/>
<glyph glyph-name="ico-crop-din" unicode="&#57454;" d="M455 512l-398 0c-31 0-57-26-57-57l0-398c0-31 26-57 57-57l398 0c31 0 57 26 57 57l0 398c0 31-26 57-57 57z m0-455l-398 0 0 398 398 0z"/>
<glyph glyph-name="ico-crop-free" unicode="&#57455;" d="M0 455l0-114 57 0 0 114 114 0 0 57-114 0c-31 0-57-26-57-57z m57-284l-57 0 0-114c0-31 26-57 57-57l114 0 0 57-114 0z m398-114l-114 0 0-57 114 0c31 0 57 26 57 57l0 114-57 0z m0 455l-114 0 0-57 114 0 0-114 57 0 0 114c0 31-26 57-57 57z"/>
<glyph glyph-name="ico-crop-landscape" unicode="&#57456;" d="M455 448l-398 0c-31 0-57-26-57-57l0-284c0-32 26-57 57-57l398 0c31 0 57 25 57 57l0 284c0 31-26 57-57 57z m0-341l-398 0 0 284 398 0z"/>
<glyph glyph-name="ico-crop-original" unicode="&#57457;" d="M455 512l-398 0c-31 0-57-26-57-57l0-398c0-31 26-57 57-57l398 0c31 0 57 26 57 57l0 398c0 31-26 57-57 57z m0-455l-398 0 0 398 398 0z m-143 191l-78-101-56 67-78-100 312 0z"/>
<glyph glyph-name="ico-crop-portrait" unicode="&#57458;" d="M405 512l-284 0c-31 0-57-26-57-57l0-398c0-31 26-57 57-57l284 0c32 0 57 26 57 57l0 398c0 31-25 57-57 57z m0-455l-284 0 0 398 284 0z"/>
<glyph glyph-name="ico-crop-rotate" unicode="&#57459;" d="M159 54c-69 33-119 100-127 181l-32 0c11-132 121-235 255-235 5 0 9 0 14 1l-81 81z m98 458c-5 0-9 0-14-1l81-81 29 28c69-33 119-100 127-181l32 0c-11 132-121 235-255 235z m84-299l43 0 0 128c0 24-19 43-43 43l-128 0 0-43 128 0z m-170-42l0 256-43 0 0-43-43 0 0-43 43 0 0-170c0-24 19-43 43-43l170 0 0-43 43 0 0 43 43 0 0 43z"/>
<glyph glyph-name="ico-crop-square" unicode="&#57460;" d="M448 512l-384 0c-35 0-64-29-64-64l0-384c0-35 29-64 64-64l384 0c35 0 64 29 64 64l0 384c0 35-29 64-64 64z m0-448l-384 0 0 384 384 0z"/>
<glyph glyph-name="ico-dashboard" unicode="&#57461;" d="M0 228l228 0 0 284-228 0z m0-228l228 0 0 171-228 0z m284 0l228 0 0 284-228 0z m0 512l0-171 228 0 0 171z"/>
<glyph glyph-name="ico-data-usage" unicode="&#57462;" d="M282 512l0-78c86-12 153-86 153-177 0-23-4-45-12-65l66-39c15 32 23 67 23 104 0 133-101 242-230 255z m-26-434c-99 0-179 80-179 179 0 91 67 165 153 177l0 78c-129-13-230-122-230-255 0-141 114-256 256-256 84 0 159 41 206 105l-66 39c-33-41-83-67-140-67z"/>
<glyph glyph-name="ico-date-range" unicode="&#57463;" d="M186 282l-52 0 0-52 52 0z m102 0l-51 0 0-52 51 0z m102 0l-51 0 0-52 51 0z m52 179l-26 0 0 51-51 0 0-51-205 0 0 51-51 0 0-51-26 0c-28 0-51-23-51-51l0-359c0-28 23-51 51-51l359 0c28 0 51 23 51 51l0 359c0 28-23 51-51 51z m0-410l-359 0 0 282 359 0z"/>
<glyph glyph-name="ico-menu" unicode="&#57464;" d="M0 64l512 0 0 80-512 0z m0 152l512 0 0 80-512 0z m0 232l0-80 512 0 0 80z"/>
<glyph glyph-name="ico-delete" unicode="&#57465;" d="M92 57c0-31 26-57 57-57l228 0c31 0 57 26 57 57l0 341-342 0z m370 427l-99 0-29 28-142 0-28-28-100 0 0-57 398 0z"/>
<glyph glyph-name="ico-description" unicode="&#57466;" d="M320 512l-205 0c-28 0-51-23-51-51l0-410c0-28 23-51 51-51l307 0c29 0 52 23 52 51l0 307z m51-410l-205 0 0 52 205 0z m0 103l-205 0 0 51 205 0z m-77 128l0 141 141-141z"/>
<glyph glyph-name="ico-desktop-mac" unicode="&#57467;" d="M465 480l-418 0c-26 0-47-21-47-47l0-279c0-25 21-46 47-46l162 0-46-70 0-23 186 0 0 23-46 70 162 0c26 0 47 21 47 46l0 279c0 26-21 47-47 47z m0-279l-418 0 0 232 418 0z"/>
<glyph glyph-name="ico-desktop-windows" unicode="&#57468;" d="M465 480l-418 0c-26 0-47-21-47-47l0-279c0-25 21-46 47-46l162 0 0-47-46 0 0-46 186 0 0 46-46 0 0 47 162 0c26 0 47 21 47 46l0 279c0 26-21 47-47 47z m0-326l-418 0 0 279 418 0z"/>
<glyph glyph-name="ico-details" unicode="&#57469;" d="M0 480l256-455 256 455z m96-57l320 0-160-284z"/>
<glyph glyph-name="ico-developer-board" unicode="&#57470;" d="M512 326l0 52-51 0 0 51c0 28-23 51-51 51l-359 0c-28 0-51-23-51-51l0-359c0-28 23-51 51-51l359 0c28 0 51 23 51 51l0 52 51 0 0 51-51 0 0 51 51 0 0 51-51 0 0 51z m-102-256l-359 0 0 359 359 0z m-308 154l128 0 0-102-128 0z m154 154l102 0 0-77-102 0z m-154 0l128 0 0-128-128 0z m154-103l102 0 0-153-102 0z"/>
<glyph glyph-name="ico-developer-mode" unicode="&#57471;" d="M134 419l233 0 0-47 46 0 0 93c0 26-21 47-46 47l-233 0c-26 0-47-21-47-47l0-93 47 0z m196-270l106 107-106 107-33-33 74-74-74-74z m-126 33l-74 74 74 74-33 33-107-107 107-107z m163-89l-233 0 0 47-47 0 0-93c0-26 21-47 47-47l233 0c25 0 46 21 46 47l0 93-46 0z"/>
<glyph glyph-name="ico-device-hub" unicode="&#57472;" d="M398 142l-114 114 0 90c33 12 57 44 57 81 0 47-38 85-85 85-47 0-85-38-85-85 0-37 24-69 57-81l0-90-114-114-114 0 0-142 142 0 0 87 114 119 114-119 0-87 142 0 0 142z"/>
<glyph glyph-name="ico-devices" unicode="&#57473;" d="M85 384l384 0 0 43-384 0c-23 0-42-20-42-43l0-235-43 0 0-64 299 0 0 64-214 0z m406-43l-128 0c-12 0-22-9-22-21l0-213c0-12 10-22 22-22l128 0c11 0 21 10 21 22l0 213c0 12-10 21-21 21z m-22-192l-85 0 0 150 85 0z"/>
<glyph glyph-name="ico-devices-other" unicode="&#57474;" d="M47 401l418 0 0 47-418 0c-26 0-47-21-47-47l0-279c0-25 21-46 47-46l93 0 0 46-93 0z m232-139l-93 0 0-42c-14-12-23-31-23-51 0-21 9-39 23-52l0-41 93 0 0 41c14 13 24 31 24 52 0 20-10 39-24 51z m-46-128c-20 0-35 15-35 35 0 19 15 35 35 35 19 0 35-16 35-35 0-20-16-35-35-35z m256 221l-140 0c-12 0-23-12-23-23l0-233c0-12 11-23 23-23l140 0c11 0 23 11 23 23l0 233c0 11-12 23-23 23z m-24-233l-93 0 0 186 93 0z"/>
<glyph glyph-name="ico-dialer-sip" unicode="&#57475;" d="M398 512l-28 0 0-142 28 0z m-57-57l-57 0 0 29 57 0 0 28-85 0 0-85 57 0 0-29-57 0 0-28 85 0z m86 57l0-142 28 0 0 57 57 0 0 85z m57-57l-29 0 0 29 29 0z m0-299c-36 0-70 6-102 17-10 3-21 1-29-7l-62-63c-81 41-147 107-188 188l63 63c8 7 10 18 7 28-11 32-17 66-17 102 0 15-12 28-28 28l-100 0c-15 0-28-13-28-28 0-268 216-484 484-484 15 0 28 13 28 28l0 100c0 16-13 28-28 28z"/>
<glyph glyph-name="ico-dialpad" unicode="&#57476;" d="M250 93c-25 0-46-21-46-46 0-26 21-47 46-47 26 0 47 21 47 47 0 25-21 46-47 46z m-139 419c-26 0-47-21-47-47 0-25 21-46 47-46 25 0 46 21 46 46 0 26-21 47-46 47z m0-140c-26 0-47-21-47-46 0-26 21-47 47-47 25 0 46 21 46 47 0 25-21 46-46 46z m0-139c-26 0-47-21-47-47 0-25 21-46 47-46 25 0 46 21 46 46 0 26-21 47-46 47z m279 186c25 0 46 21 46 46 0 26-21 47-46 47-26 0-47-21-47-47 0-25 21-46 47-46z m-140-186c-25 0-46-21-46-47 0-25 21-46 46-46 26 0 47 21 47 46 0 26-21 47-47 47z m140 0c-26 0-47-21-47-47 0-25 21-46 47-46 25 0 46 21 46 46 0 26-21 47-46 47z m0 139c-26 0-47-21-47-46 0-26 21-47 47-47 25 0 46 21 46 47 0 25-21 46-46 46z m-140 0c-25 0-46-21-46-46 0-26 21-47 46-47 26 0 47 21 47 47 0 25-21 46-47 46z m0 140c-25 0-46-21-46-47 0-25 21-46 46-46 26 0 47 21 47 46 0 26-21 47-47 47z"/>
<glyph glyph-name="ico-directions" unicode="&#57477;" d="M505 274l-231 231c-10 9-26 9-36 0l-231-231c-9-10-9-26 0-36l231-231c10-9 26-9 36 0l231 231c9 10 9 26 0 36z m-198-82l0 64-102 0 0-77-52 0 0 102c0 15 12 26 26 26l128 0 0 64 90-90z"/>
<glyph glyph-name="ico-directions-bike" unicode="&#57478;" d="M331 395c23 0 42 19 42 42 0 24-19 43-42 43-24 0-43-19-43-43 0-23 19-42 43-42z m-224-139c-60 0-107-47-107-107 0-59 47-106 107-106 59 0 106 47 106 106 0 60-47 107-106 107z m0-181c-41 0-75 34-75 74 0 41 34 75 75 75 40 0 74-34 74-75 0-40-34-74-74-74z m123 213l52 51 17-17c27-28 64-45 108-45l0 43c-32 0-57 13-76 32l-41 41c-11 8-21 12-34 12-13 0-23-4-30-12l-60-60c-8-9-12-19-12-30 0-13 4-24 12-30l69-60 0-106 42 0 0 132z m175-32c-59 0-106-47-106-107 0-59 47-106 106-106 60 0 107 47 107 106 0 60-47 107-107 107z m0-181c-40 0-74 34-74 74 0 41 34 75 74 75 41 0 75-34 75-75 0-40-34-74-75-74z"/>
<glyph glyph-name="ico-directions-boat" unicode="&#57479;" d="M451 47c-32 0-65 10-93 30-57-40-130-40-186 0-29-20-61-30-93-30l-47 0 0-47 47 0c32 0 63 8 93 23 58-30 127-30 186 0 29-15 61-23 93-23l47 0 0 47z m-374 46l2 0c37 0 70 21 93 47 22-26 56-47 93-47 37 0 70 21 93 47 23-26 56-47 93-47l1 0 44 156c2 6 2 12-1 18-3 5-8 9-14 11l-30 10 0 108c0 25-21 46-47 46l-69 0 0 70-140 0 0-70-70 0c-25 0-46-21-46-46l0-108-30-10c-6-2-12-6-14-11-3-6-4-12-2-18z m48 303l279 0 0-93-139 46-140-46z"/>
<glyph glyph-name="ico-directions-bus" unicode="&#57480;" d="M32 135c0-24 11-45 27-60l0-48c0-15 12-27 27-27l27 0c15 0 27 12 27 27l0 27 215 0 0-27c0-15 12-27 27-27l27 0c15 0 27 12 27 27l0 48c17 15 27 36 27 60l0 269c0 95-96 108-215 108-120 0-216-13-216-108z m94-27c-22 0-40 18-40 40 0 23 18 41 40 41 23 0 41-18 41-41 0-22-18-40-41-40z m243 0c-23 0-41 18-41 40 0 23 18 41 41 41 22 0 40-18 40-41 0-22-18-40-40-40z m40 161l-323 0 0 135 323 0z"/>
<glyph glyph-name="ico-directions-car" unicode="&#57481;" d="M453 451c-6 17-22 29-41 29l-312 0c-19 0-35-12-41-29l-59-170 0-228c0-15 13-28 28-28l29 0c16 0 28 13 28 28l0 29 342 0 0-29c0-15 12-28 28-28l29 0c15 0 28 13 28 28l0 228z m-353-284c-24 0-43 19-43 43 0 23 19 42 43 42 23 0 42-19 42-42 0-24-19-43-42-43z m312 0c-23 0-42 19-42 43 0 23 19 42 42 42 24 0 43-19 43-42 0-24-19-43-43-43z m-355 142l43 128 312 0 43-128z"/>
<glyph glyph-name="ico-directions-railway" unicode="&#57482;" d="M64 141c0-50 40-90 90-90l-39-38 0-13 307 0 0 13-38 38c49 0 90 40 90 90l0 269c0 89-92 102-205 102-113 0-205-13-205-102z m205-39c-28 0-51 23-51 52 0 28 23 51 51 51 28 0 51-23 51-51 0-29-23-52-51-52z m153 180l-307 0 0 128 307 0z"/>
<glyph glyph-name="ico-directions-run" unicode="&#57483;" d="M316 417c27 0 48 21 48 47 0 27-21 48-48 48-26 0-47-21-47-48 0-26 21-47 47-47z m-85-331l24 105 50-48 0-143 47 0 0 179-50 47 14 72c31-36 79-60 131-60l0 48c-45 0-83 24-102 57l-24 38c-9 14-24 24-40 24-7 0-12-3-19-3l-124-52 0-112 47 0 0 81 43 17-38-193-116 24-10-48z"/>
<glyph glyph-name="ico-directions-subway" unicode="&#57484;" d="M248 512c-120 0-216-13-216-108l0-256c0-52 42-94 94-94l-40-41 0-13 323 0 0 13-40 41c52 0 94 42 94 94l0 256c0 95-96 108-215 108z m-122-404c-22 0-40 18-40 40 0 23 18 41 40 41 23 0 41-18 41-41 0-22-18-40-41-40z m95 161l-135 0 0 135 135 0z m148-161c-23 0-41 18-41 40 0 23 18 41 41 41 22 0 40-18 40-41 0-22-18-40-40-40z m40 161l-134 0 0 135 134 0z"/>
<glyph glyph-name="ico-directions-transit" unicode="&#57485;" d="M248 512c-120 0-216-13-216-108l0-256c0-52 42-94 94-94l-40-41 0-13 323 0 0 13-40 41c52 0 94 42 94 94l0 256c0 95-96 108-215 108z m-122-404c-22 0-40 18-40 40 0 23 18 41 40 41 23 0 41-18 41-41 0-22-18-40-41-40z m95 161l-135 0 0 135 135 0z m148-161c-23 0-41 18-41 40 0 23 18 41 41 41 22 0 40-18 40-41 0-22-18-40-40-40z m40 161l-134 0 0 135 134 0z"/>
<glyph glyph-name="ico-directions-walk" unicode="&#57486;" d="M275 417c26 0 47 21 47 47 0 27-21 48-47 48-27 0-48-21-48-48 0-26 21-47 48-47z m-89-81l-66-336 50 0 43 191 50-48 0-143 47 0 0 179-50 47 15 72c31-36 78-60 131-60l0 48c-46 0-84 24-103 57l-24 38c-9 14-23 24-40 24-7 0-12-3-19-3l-124-52 0-112 48 0 0 81z"/>
<glyph glyph-name="ico-disc-full" unicode="&#57487;" d="M461 141l51 0 0 51-51 0z m0 230l0-128 51 0 0 128z m-256 77c-113 0-205-92-205-205 0-113 92-205 205-205 113 0 205 92 205 205 0 113-92 205-205 205z m0-256c-28 0-51 23-51 51 0 28 23 51 51 51 28 0 51-23 51-51 0-28-23-51-51-51z"/>
<glyph glyph-name="ico-dns" unicode="&#57488;" d="M484 228l-456 0c-15 0-28-13-28-29l0-171c0-15 13-28 28-28l456 0c15 0 28 13 28 28l0 171c0 16-13 29-28 29z m-370-171c-32 0-57 25-57 57 0 31 25 57 57 57 31 0 57-26 57-57 0-32-26-57-57-57z m370 455l-456 0c-15 0-28-13-28-28l0-171c0-16 13-29 28-29l456 0c15 0 28 13 28 29l0 171c0 15-13 28-28 28z m-370-171c-32 0-57 26-57 57 0 32 25 57 57 57 31 0 57-25 57-57 0-31-26-57-57-57z"/>
<glyph glyph-name="ico-do-not-disturb" unicode="&#57489;" d="M256 512c-141 0-256-115-256-256 0-141 115-256 256-256 141 0 256 115 256 256 0 141-115 256-256 256z m0-461c-113 0-205 92-205 205 0 47 16 91 43 125l287-287c-34-27-78-43-125-43z m162 80l-287 287c34 27 78 43 125 43 113 0 205-92 205-205 0-47-16-91-43-125z"/>
<glyph glyph-name="ico-do-not-disturb-alt" unicode="&#57490;" d="M256 512c-141 0-256-115-256-256 0-141 115-256 256-256 141 0 256 115 256 256 0 141-115 256-256 256z m-205-256c0 113 92 205 205 205 46 0 90-16 125-44l-286-286c-28 35-44 79-44 125z m205-205c-46 0-90 16-125 44l286 286c28-35 44-79 44-125 0-113-92-205-205-205z"/>
<glyph glyph-name="ico-dock" unicode="&#57491;" d="M175 0l186 0 0 47-186 0z m186 512l-186 0c-26 0-47-21-47-47l0-325c0-26 21-47 47-47l186 0c25 0 46 21 46 47l0 325c0 26-21 47-46 47z m0-326l-186 0 0 233 186 0z"/>
<glyph glyph-name="ico-domain" unicode="&#57492;" d="M256 378l0 102-256 0 0-461 512 0 0 359z m-154-308l-51 0 0 52 51 0z m0 103l-51 0 0 51 51 0z m0 102l-51 0 0 51 51 0z m0 103l-51 0 0 51 51 0z m103-308l-51 0 0 52 51 0z m0 103l-51 0 0 51 51 0z m0 102l-51 0 0 51 51 0z m0 103l-51 0 0 51 51 0z m256-308l-205 0 0 52 51 0 0 51-51 0 0 51 51 0 0 51-51 0 0 51 205 0z m-51 205l-52 0 0-51 52 0z m0-102l-52 0 0-51 52 0z"/>
<glyph glyph-name="ico-done" unicode="&#57493;" d="M163 140l-122 122-41-41 163-163 349 349-41 41z"/>
<glyph glyph-name="ico-done-all" unicode="&#57494;" d="M387 385l-31 31-139-140 31-31z m94 31l-233-233-92 92-31-31 123-123 264 264z m-481-172l123-123 31 31-123 123z"/>
<glyph glyph-name="ico-donut-large" unicode="&#57495;" d="M230 433l0 79c-128-13-230-123-230-256 0-133 102-243 230-256l0 79c-76 12-153 87-153 177 0 90 77 165 153 177z m204-151l78 0c-12 128-102 218-230 230l0-79c76-11 141-75 152-151z m-152-203l0-79c128 12 218 102 230 230l-78 0c-11-76-76-140-152-151z"/>
<glyph glyph-name="ico-donut-small" unicode="&#57496;" d="M230 329l0 183c-128-13-230-123-230-256 0-133 102-243 230-256l0 183c-25 11-51 39-51 73 0 34 26 62 51 73z m99-47l183 0c-12 121-102 218-230 230l0-183c25-8 39-25 47-47z m-47-99l0-183c128 12 218 109 230 230l-183 0c-8-22-22-39-47-47z"/>
<glyph glyph-name="ico-drafts" unicode="&#57497;" d="M512 333c0 18-10 34-24 43l-232 136-232-136c-14-9-24-25-24-43l0-256c0-28 23-51 51-51l410 0c28 0 51 23 51 51z m-256-128l-211 132 211 124 211-124z"/>
<glyph glyph-name="ico-drag-handle" unicode="&#57498;" d="M512 352l-512 0 0-64 512 0z m-512-192l512 0 0 64-512 0z"/>
<glyph glyph-name="ico-drive-eta" unicode="&#57499;" d="M453 451c-6 17-22 29-41 29l-312 0c-19 0-35-12-41-29l-59-170 0-228c0-15 13-28 28-28l29 0c16 0 28 13 28 28l0 29 342 0 0-29c0-15 12-28 28-28l29 0c15 0 28 13 28 28l0 228z m-353-284c-24 0-43 19-43 43 0 23 19 42 43 42 23 0 42-19 42-42 0-24-19-43-42-43z m312 0c-23 0-42 19-42 43 0 23 19 42 42 42 24 0 43-19 43-42 0-24-19-43-43-43z m-355 142l43 128 312 0 43-128z"/>
<glyph glyph-name="ico-dvr" unicode="&#57500;" d="M465 480l-418 0c-26 0-47-21-47-47l0-279c0-25 21-46 47-46l116 0 0-47 186 0 0 47 116 0c26 0 47 21 47 46l0 279c0 26-21 47-47 47z m0-326l-418 0 0 279 418 0z m-46 210l-256 0 0-47 256 0z m0-93l-256 0 0-47 256 0z m-279 93l-47 0 0-47 47 0z m0-93l-47 0 0-47 47 0z"/>
<glyph glyph-name="ico-edit" unicode="&#57501;" d="M0 107l0-107 107 0 314 315-106 106z m504 290c11 11 11 29 0 40l-67 67c-11 11-29 11-40 0l-52-52 107-107z"/>
<glyph glyph-name="ico-edit-location" unicode="&#57502;" d="M243 512c-99 0-179-80-179-179 0-135 179-333 179-333 0 0 179 198 179 333 0 99-80 179-179 179z m-40-256l-37 0 0 37 86 85 37-36z m114 114l-18-18-37 37 18 18c4 4 10 4 14 0l23-23c4-4 4-10 0-14z"/>
<glyph glyph-name="ico-eject" unicode="&#57503;" d="M0 73l512 0 0-73-512 0z m256 439l-244-366 488 0z"/>
<glyph glyph-name="ico-email" unicode="&#57504;" d="M461 448l-410 0c-28 0-51-23-51-51l0-307c0-29 23-52 51-52l410 0c28 0 51 23 51 52l0 307c0 28-23 51-51 51z m0-102l-205-128-205 128 0 51 205-128 205 128z"/>
<glyph glyph-name="ico-enhanced-encryption" unicode="&#57505;" d="M405 341l-24 0 0 49c0 67-55 122-122 122-67 0-122-55-122-122l0-49-24 0c-27 0-49-22-49-48l0-244c0-27 22-49 49-49l292 0c27 0 49 22 49 49l0 244c0 26-22 48-49 48z m-222 49c0 42 34 76 76 76 42 0 76-34 76-76l0-49-152 0z m174-244l-74 0 0-73-48 0 0 73-73 0 0 49 73 0 0 73 48 0 0-73 74 0z"/>
<glyph glyph-name="ico-equalizer" unicode="&#57506;" d="M192 0l128 0 0 512-128 0z m-192 0l128 0 0 256-128 0z m384 352l0-352 128 0 0 352z"/>
<glyph glyph-name="ico-error" unicode="&#57507;" d="M256 512c-141 0-256-115-256-256 0-141 115-256 256-256 141 0 256 115 256 256 0 141-115 256-256 256z m26-384l-52 0 0 51 52 0z m0 102l-52 0 0 154 52 0z"/>
<glyph glyph-name="ico-error-outline" unicode="&#57508;" d="M230 179l52 0 0-51-52 0z m0 205l52 0 0-154-52 0z m26 128c-142 0-256-115-256-256 0-141 114-256 256-256 141 0 256 115 256 256 0 141-115 256-256 256z m0-461c-113 0-205 92-205 205 0 113 92 205 205 205 113 0 205-92 205-205 0-113-92-205-205-205z"/>
<glyph glyph-name="ico-event" unicode="&#57509;" d="M390 230l-128 0 0-128 128 0z m-25 282l0-51-205 0 0 51-51 0 0-51-26 0c-28 0-51-23-51-51l0-359c0-28 23-51 51-51l359 0c28 0 51 23 51 51l0 359c0 28-23 51-51 51l-26 0 0 51z m77-461l-359 0 0 282 359 0z"/>
<glyph glyph-name="ico-event-available" unicode="&#57510;" d="M378 254l-27 28-125-125-54 54-27-27 81-82z m64 207l-26 0 0 51-51 0 0-51-205 0 0 51-51 0 0-51-26 0c-28 0-51-23-51-51l0-359c0-28 23-51 51-51l359 0c28 0 51 23 51 51l0 359c0 28-23 51-51 51z m0-410l-359 0 0 282 359 0z"/>
<glyph glyph-name="ico-event-busy" unicode="&#57511;" d="M194 102l62 63 62-63 28 28-63 62 63 62-28 28-62-63-62 63-28-28 63-62-63-62z m248 359l-26 0 0 51-51 0 0-51-205 0 0 51-51 0 0-51-26 0c-28 0-51-23-51-51l0-359c0-28 23-51 51-51l359 0c28 0 51 23 51 51l0 359c0 28-23 51-51 51z m0-410l-359 0 0 282 359 0z"/>
<glyph glyph-name="ico-event-note" unicode="&#57512;" d="M390 282l-256 0 0-52 256 0z m52 179l-26 0 0 51-51 0 0-51-205 0 0 51-51 0 0-51-26 0c-28 0-51-23-51-51l0-359c0-28 23-51 51-51l359 0c28 0 51 23 51 51l0 359c0 28-23 51-51 51z m0-410l-359 0 0 282 359 0z m-128 128l-180 0 0-51 180 0z"/>
<glyph glyph-name="ico-event-seat" unicode="&#57513;" d="M51 96l0-77 77 0 0 77 256 0 0-77 77 0 0 154-410 0z m384 205l77 0 0-77-77 0z m-435 0l77 0 0-77-77 0z m384-77l-256 0 0 205c0 28 23 51 51 51l154 0c28 0 51-23 51-51z"/>
<glyph glyph-name="ico-exit-to-app" unicode="&#57514;" d="M202 154l40-40 142 142-142 142-40-40 73-74-275 0 0-56 275 0z m253 358l-398 0c-32 0-57-26-57-57l0-114 57 0 0 114 398 0 0-398-398 0 0 114-57 0 0-114c0-31 25-57 57-57l398 0c31 0 57 26 57 57l0 398c0 31-26 57-57 57z"/>
<glyph glyph-name="ico-expand-less" unicode="&#57515;" d="M256 416l-256-256 60-60 196 195 196-195 60 60z"/>
<glyph glyph-name="ico-expand-more" unicode="&#57516;" d="M452 416l-196-195-196 195-60-60 256-256 256 256z"/>
<glyph glyph-name="ico-explicit" unicode="&#57517;" d="M455 512l-398 0c-31 0-57-26-57-57l0-398c0-31 26-57 57-57l398 0c31 0 57 26 57 57l0 398c0 31-26 57-57 57z m-114-171l-113 0 0-57 113 0 0-56-113 0 0-57 113 0 0-57-170 0 0 284 170 0z"/>
<glyph glyph-name="ico-explore" unicode="&#57518;" d="M256 284c-16 0-28-12-28-28 0-16 12-28 28-28 16 0 28 12 28 28 0 16-12 28-28 28z m0 228c-141 0-256-115-256-256 0-141 115-256 256-256 141 0 256 115 256 256 0 141-115 256-256 256z m56-312l-210-98 98 210 210 98z"/>
<glyph glyph-name="ico-exposure" unicode="&#57519;" d="M333 128l0-51 51 0 0 51 51 0 0 51-51 0 0 51-51 0 0-51-51 0 0-51z m128 384l-410 0c-28 0-51-23-51-51l0-410c0-28 23-51 51-51l410 0c28 0 51 23 51 51l0 410c0 28-23 51-51 51z m-384-77l153 0 0-51-153 0z m384-384l-410 0 410 410z"/>
<glyph glyph-name="ico-exposure-neg-1" unicode="&#57520;" d="M0 275l0-68 273 0 0 68z m512-239l-68 0 0 363-103-35 0 58 161 58 10 0z"/>
<glyph glyph-name="ico-exposure-neg-2" unicode="&#57521;" d="M352 112l77 82c10 11 19 22 28 32 8 11 16 21 22 32 6 10 11 21 14 31 4 11 6 22 6 32 0 14-3 28-8 39-5 12-12 22-21 30-9 9-21 15-34 20-13 4-29 6-46 6-19 0-35-3-50-9-14-5-27-13-37-23-10-10-17-22-22-35-5-13-7-27-8-41l58 0c0 9 1 16 3 24 3 7 7 14 11 20 5 6 11 10 19 13 7 3 16 5 25 5 9 0 16-1 22-4 6-3 12-7 16-12 4-5 8-10 10-17 2-7 4-14 4-22 0-6-1-12-3-18-1-5-4-12-7-18-4-7-9-15-15-23-7-8-14-17-24-28l-113-122 0-40 233 0 0 46z m-352 142l0-54 216 0 0 54z"/>
<glyph glyph-name="ico-exposure-plus-1" unicode="&#57522;" d="M192 384l-64 0 0-128-128 0 0-64 128 0 0-128 64 0 0 128 128 0 0 64-128 0z m320-352l-64 0 0 340-96-33 0 55 150 54 10 0z"/>
<glyph glyph-name="ico-exposure-plus-2" unicode="&#57523;" d="M360 127l73 79c10 10 18 20 27 30 8 10 15 20 21 30 5 10 10 20 13 30 4 10 5 20 5 30 0 13-2 26-7 37-4 12-11 21-20 29-8 8-19 14-32 18-13 4-28 6-44 6-18 0-34-3-47-8-14-6-26-13-35-23-10-9-17-20-22-33-4-12-7-25-7-38l55 0c0 8 1 15 3 22 3 7 6 14 11 19 4 5 10 10 17 13 7 3 15 4 25 4 7 0 14-1 20-4 6-2 11-6 15-11 4-4 8-10 10-16 2-7 3-14 3-21 0-6-1-11-2-17-1-5-4-11-7-18-4-6-9-13-15-21-6-7-13-16-22-26l-107-117 0-38 221 0 0 44z m-206 238l-52 0 0-103-102 0 0-51 102 0 0-102 52 0 0 102 102 0 0 51-102 0z"/>
<glyph glyph-name="ico-exposure-zero" unicode="&#57524;" d="M422 217c0-40-4-73-12-101-8-27-19-50-32-67-15-17-32-29-52-37-20-8-42-12-67-12-24 0-46 4-66 12-20 8-38 20-52 37-14 18-25 40-33 67-8 28-12 61-12 101l0 80c0 39 4 73 12 100 8 28 19 50 33 67 14 17 31 29 51 37 20 7 43 11 67 11 25 0 47-4 67-11 20-8 37-20 52-37 14-17 25-39 33-67 8-27 12-60 12-100l0-80z m-83 93c0 25-2 46-5 63-4 18-9 31-16 42-7 11-15 18-25 23-10 5-21 7-34 7-13 0-24-2-34-7-10-4-18-12-25-22-7-11-12-25-16-42-3-18-5-39-5-64l0-105c0-25 2-47 6-64 3-18 9-32 15-43 7-11 16-19 26-24 9-5 21-7 34-7 13 0 24 2 34 7 10 5 18 13 25 24 7 11 12 25 15 43 4 18 5 39 5 64l0 105z"/>
<glyph glyph-name="ico-extension" unicode="&#57525;" d="M451 268l-37 0 0 98c0 27-21 48-48 48l-98 0 0 37c0 34-27 61-61 61-33 0-61-27-61-61l0-37-97 0c-27 0-49-21-49-48l0-93 37 0c36 0 65-29 65-66 0-36-29-66-65-66l-37 0 0-92c0-27 22-49 49-49l92 0 0 37c0 36 30 65 66 65 37 0 66-29 66-65l0-37 93 0c27 0 48 22 48 49l0 97 37 0c34 0 61 28 61 61 0 34-27 61-61 61z"/>
<glyph glyph-name="ico-face" unicode="&#57526;" d="M179 262c-17 0-32-14-32-32 0-17 15-32 32-32 18 0 32 15 32 32 0 18-14 32-32 32z m154 0c-18 0-32-14-32-32 0-17 14-32 32-32 17 0 32 15 32 32 0 18-15 32-32 32z m-77 250c-141 0-256-115-256-256 0-141 115-256 256-256 141 0 256 115 256 256 0 141-115 256-256 256z m0-461c-113 0-205 92-205 205 0 7 1 15 1 22 61 27 109 76 134 137 46-65 122-108 209-108 20 0 39 3 57 7 6-18 9-38 9-58 0-113-92-205-205-205z"/>
<glyph glyph-name="ico-fast-forward" unicode="&#57527;" d="M0 65l249 175-249 176z m263 351l0-351 249 175z"/>
<glyph glyph-name="ico-fast-rewind" unicode="&#57528;" d="M249 65l0 351-249-176z m14 175l249-175 0 351z"/>
<glyph glyph-name="ico-favorite" unicode="&#57529;" d="M256 10l-37 34c-132 120-219 198-219 295 0 79 62 141 141 141 44 0 87-21 115-54 28 33 71 54 115 54 79 0 141-62 141-141 0-97-87-175-219-295z"/>
<glyph glyph-name="ico-favorite-border" unicode="&#57530;" d="M371 480c-44 0-87-21-115-54-28 33-71 54-115 54-79 0-141-62-141-141 0-97 87-175 219-295l37-34 37 34c132 120 219 198 219 295 0 79-62 141-141 141z m-112-398l-3-3-3 3c-121 110-202 183-202 257 0 51 39 90 90 90 39 0 78-26 91-61l48 0c13 35 52 61 91 61 51 0 90-39 90-90 0-74-81-147-202-257z"/>
<glyph glyph-name="ico-feedback" unicode="&#57531;" d="M461 512l-410 0c-28 0-51-23-51-51l0-461 102 102 359 0c28 0 51 23 51 52l0 307c0 28-23 51-51 51z m-179-307l-52 0 0 51 52 0z m0 102l-52 0 0 103 52 0z"/>
<glyph glyph-name="ico-fiber-dvr" unicode="&#57532;" d="M384 305l47 0 0-23-47 0z m-303 0l47 0 0-69-47 0z m384 175l-418 0c-26 0-47-21-47-47l0-325c0-26 21-47 47-47l418 0c26 0 47 21 47 47l0 325c0 26-21 47-47 47z m-302-244c0-20-15-35-35-35l-81 0 0 139 81 0c20 0 35-15 35-35z m107-35l-34 0-41 139 35 0 23-79 23 79 35 0z m195 81c0-14-9-27-20-32l20-49-34 0-20 46-27 0 0-46-35 0 0 139 82 0c19 0 34-15 34-35z"/>
<glyph glyph-name="ico-fiber-manual-record" unicode="&#57533;" d="M512 256c0-141-115-256-256-256-141 0-256 115-256 256 0 141 115 256 256 256 141 0 256-115 256-256z"/>
<glyph glyph-name="ico-fiber-new" unicode="&#57534;" d="M461 448l-410 0c-28 0-51-23-51-51l0-307c0-29 23-52 51-52l410 0c28 0 51 23 51 52l0 307c0 28-23 51-51 51z m-295-282l-30 0-66 90 0-90-32 0 0 154 32 0 64-90 0 90 32 0z m128 122l-64 0 0-29 64 0 0-32-64 0 0-29 64 0 0-32-102 0 0 154 102 0z m180-96c0-14-12-26-26-26l-102 0c-14 0-26 12-26 26l0 128 32 0 0-115 29 0 0 90 32 0 0-90 29 0 0 115 32 0z"/>
<glyph glyph-name="ico-fiber-pin" unicode="&#57535;" d="M90 282l51 0 0-26-51 0z m371 166l-410 0c-28 0-51-23-51-51l0-307c0-29 23-52 51-52l410 0c28 0 51 23 51 52l0 307c0 28-23 51-51 51z m-282-192c0-22-16-38-38-38l-51 0 0-52-39 0 0 154 90 0c22 0 38-17 38-38z m90-90l-39 0 0 154 39 0z m192 0l-31 0-65 90 0-90-32 0 0 154 32 0 64-90 0 90 32 0z"/>
<glyph glyph-name="ico-fiber-smart-record" unicode="&#57536;" d="M186 76c-103 0-186 83-186 186 0 103 83 186 186 186 103 0 186-83 186-186 0-103-83-186-186-186z m186 366c81-21 140-93 140-180 0-87-59-160-140-180l0 48c55 19 93 71 93 132 0 61-38 112-93 131z"/>
<glyph glyph-name="ico-file-download" unicode="&#57537;" d="M454 331l-121 0 0 181-181 0 0-181-120 0 211-211z m-422-271l0-60 422 0 0 60z"/>
<glyph glyph-name="ico-file-upload" unicode="&#57538;" d="M152 120l181 0 0 181 121 0-211 211-211-211 120 0z m-120-60l422 0 0-60-422 0z"/>
<glyph glyph-name="ico-filter" unicode="&#57539;" d="M348 296l-64-83-45 55-64-82 256 0z m-301 123l-47 0 0-372c0-26 21-47 47-47l372 0 0 47-372 0z m418 93l-325 0c-26 0-47-21-47-47l0-325c0-26 21-47 47-47l325 0c26 0 47 21 47 47l0 325c0 26-21 47-47 47z m0-372l-325 0 0 325 325 0z"/>
<glyph glyph-name="ico-filter-1" unicode="&#57540;" d="M47 419l-47 0 0-372c0-26 21-47 47-47l372 0 0 47-372 0z m256-233l46 0 0 233-93 0 0-47 47 0z m162 326l-325 0c-26 0-47-21-47-47l0-325c0-26 21-47 47-47l325 0c26 0 47 21 47 47l0 325c0 26-21 47-47 47z m0-372l-325 0 0 325 325 0z"/>
<glyph glyph-name="ico-filter-2" unicode="&#57541;" d="M47 419l-47 0 0-372c0-26 21-47 47-47l372 0 0 47-372 0z m418 93l-325 0c-26 0-47-21-47-47l0-325c0-26 21-47 47-47l325 0c26 0 47 21 47 47l0 325c0 26-21 47-47 47z m0-372l-325 0 0 325 325 0z m-93 93l-93 0 0 46 47 0c25 0 46 21 46 47l0 46c0 26-21 47-46 47l-93 0 0-47 93 0 0-46-47 0c-25 0-46-21-46-47l0-93 139 0z"/>
<glyph glyph-name="ico-filter-3" unicode="&#57542;" d="M465 512l-325 0c-26 0-47-21-47-47l0-325c0-26 21-47 47-47l325 0c26 0 47 21 47 47l0 325c0 26-21 47-47 47z m0-372l-325 0 0 325 325 0z m-418 279l-47 0 0-372c0-26 21-47 47-47l372 0 0 47-372 0z m325-186l0 35c0 19-15 35-35 35 20 0 35 15 35 34l0 35c0 26-21 47-46 47l-93 0 0-47 93 0 0-46-47 0 0-47 47 0 0-46-93 0 0-47 93 0c25 0 46 21 46 47z"/>
<glyph glyph-name="ico-filter-4" unicode="&#57543;" d="M47 419l-47 0 0-372c0-26 21-47 47-47l372 0 0 47-372 0z m279-233l46 0 0 233-46 0 0-93-47 0 0 93-46 0 0-140 93 0z m139 326l-325 0c-26 0-47-21-47-47l0-325c0-26 21-47 47-47l325 0c26 0 47 21 47 47l0 325c0 26-21 47-47 47z m0-372l-325 0 0 325 325 0z"/>
<glyph glyph-name="ico-filter-5" unicode="&#57544;" d="M465 512l-325 0c-26 0-47-21-47-47l0-325c0-26 21-47 47-47l325 0c26 0 47 21 47 47l0 325c0 26-21 47-47 47z m0-372l-325 0 0 325 325 0z m-418 279l-47 0 0-372c0-26 21-47 47-47l372 0 0 47-372 0z m325-186l0 46c0 26-21 47-46 47l-47 0 0 46 93 0 0 47-139 0 0-140 93 0 0-46-93 0 0-47 93 0c25 0 46 21 46 47z"/>
<glyph glyph-name="ico-filter-6" unicode="&#57545;" d="M47 419l-47 0 0-372c0-26 21-47 47-47l372 0 0 47-372 0z m418 93l-325 0c-26 0-47-21-47-47l0-325c0-26 21-47 47-47l325 0c26 0 47 21 47 47l0 325c0 26-21 47-47 47z m0-372l-325 0 0 325 325 0z m-186 46l47 0c25 0 46 21 46 47l0 46c0 26-21 47-46 47l-47 0 0 46 93 0 0 47-93 0c-25 0-46-21-46-47l0-139c0-26 21-47 46-47z m0 93l47 0 0-46-47 0z"/>
<glyph glyph-name="ico-filter-7" unicode="&#57546;" d="M47 419l-47 0 0-372c0-26 21-47 47-47l372 0 0 47-372 0z m418 93l-325 0c-26 0-47-21-47-47l0-325c0-26 21-47 47-47l325 0c26 0 47 21 47 47l0 325c0 26-21 47-47 47z m0-372l-325 0 0 325 325 0z m-186 46l93 186 0 47-139 0 0-47 93 0-93-186z"/>
<glyph glyph-name="ico-filter-8" unicode="&#57547;" d="M47 419l-47 0 0-372c0-26 21-47 47-47l372 0 0 47-372 0z m418 93l-325 0c-26 0-47-21-47-47l0-325c0-26 21-47 47-47l325 0c26 0 47 21 47 47l0 325c0 26-21 47-47 47z m0-372l-325 0 0 325 325 0z m-186 46l47 0c25 0 46 21 46 47l0 35c0 19-15 35-35 35 20 0 35 15 35 34l0 35c0 26-21 47-46 47l-47 0c-25 0-46-21-46-47l0-35c0-19 15-34 35-34-20 0-35-16-35-35l0-35c0-26 21-47 46-47z m0 186l47 0 0-46-47 0z m0-93l47 0 0-46-47 0z"/>
<glyph glyph-name="ico-filter-9" unicode="&#57548;" d="M47 419l-47 0 0-372c0-26 21-47 47-47l372 0 0 47-372 0z m418 93l-325 0c-26 0-47-21-47-47l0-325c0-26 21-47 47-47l325 0c26 0 47 21 47 47l0 325c0 26-21 47-47 47z m0-372l-325 0 0 325 325 0z m-139 279l-47 0c-25 0-46-21-46-47l0-46c0-26 21-47 46-47l47 0 0-46-93 0 0-47 93 0c25 0 46 21 46 47l0 139c0 26-21 47-46 47z m0-93l-47 0 0 46 47 0z"/>
<glyph glyph-name="ico-filter-9-plus" unicode="&#57549;" d="M47 419l-47 0 0-372c0-26 21-47 47-47l372 0 0 47-372 0z m256-163l0 93c0 26-21 47-47 47l-23 0c-26 0-47-21-47-47l0-23c0-26 21-47 47-47l23 0 0-23-70 0 0-47 70 0c26 0 47 21 47 47z m-70 70l0 23 23 0 0-23z m232 186l-325 0c-26 0-47-21-47-47l0-325c0-26 21-47 47-47l325 0c26 0 47 21 47 47l0 325c0 26-21 47-47 47z m0-186l-46 0 0 46-47 0 0-46-46 0 0-47 46 0 0-46 47 0 0 46 46 0 0-139-325 0 0 325 325 0z"/>
<glyph glyph-name="ico-filter-b-and-w" unicode="&#57550;" d="M455 512l-398 0c-31 0-57-26-57-57l0-398c0-31 26-57 57-57l398 0c31 0 57 26 57 57l0 398c0 31-26 57-57 57z m0-455l-199 227 0-227-199 0 199 227 0 171 199 0z"/>
<glyph glyph-name="ico-filter-center-focus" unicode="&#57551;" d="M57 171l-57 0 0-114c0-31 26-57 57-57l114 0 0 57-114 0z m0 284l114 0 0 57-114 0c-31 0-57-26-57-57l0-114 57 0z m398 57l-114 0 0-57 114 0 0-114 57 0 0 114c0 31-26 57-57 57z m0-455l-114 0 0-57 114 0c31 0 57 26 57 57l0 114-57 0z m-199 284c-47 0-85-38-85-85 0-47 38-85 85-85 47 0 85 38 85 85 0 47-38 85-85 85z"/>
<glyph glyph-name="ico-filter-drama" unicode="&#57552;" d="M413 298c-15 73-79 129-157 129-62 0-115-35-142-87-64-6-114-61-114-127 0-70 57-128 128-128l277 0c59 0 107 48 107 107 0 56-44 102-99 106z m-8-170l-277 0c-47 0-85 38-85 85 0 47 38 86 85 86 47 0 85-39 85-86l43 0c0 59-40 109-94 124 22 28 56 47 94 47 65 0 117-53 117-117l0-11 32 0c36 0 64-29 64-64 0-35-28-64-64-64z"/>
<glyph glyph-name="ico-filter-frames" unicode="&#57553;" d="M451 419l-93 0-93 93-93-93-93 0c-26 0-47-21-47-47l0-325c0-26 21-47 47-47l372 0c26 0 46 21 46 47l0 325c0 26-20 47-46 47z m0-372l-372 0 0 325 105 0 82 82 81-82 104 0z m-47 279l-279 0 0-233 279 0z"/>
<glyph glyph-name="ico-filter-hdr" unicode="&#57554;" d="M303 384l-88-116 67-89-38-28c-39 53-104 140-104 140l-140-186 512 0z"/>
<glyph glyph-name="ico-filter-list" unicode="&#57555;" d="M199 75l114 0 0 57-114 0z m-199 341l0-57 512 0 0 57z m85-199l342 0 0 57-342 0z"/>
<glyph glyph-name="ico-filter-none" unicode="&#57556;" d="M47 419l-47 0 0-372c0-26 21-47 47-47l372 0 0 47-372 0z m418 93l-325 0c-26 0-47-21-47-47l0-325c0-26 21-47 47-47l325 0c26 0 47 21 47 47l0 325c0 26-21 47-47 47z m0-372l-325 0 0 325 325 0z"/>
<glyph glyph-name="ico-filter-tilt-shift" unicode="&#57557;" d="M230 460l0 52c-51-5-99-26-137-57l37-37c28 22 63 37 100 42z m189-5c-38 31-86 52-137 57l0-52c37-5 72-20 100-42z m41-173l52 0c-5 51-26 99-57 137l-37-37c22-28 37-63 42-100z m-366 100l-37 37c-31-38-52-86-57-137l52 0c5 37 20 72 42 100z m-42-152l-52 0c5-51 26-99 57-137l37 37c-22 28-37 63-42 100z m281 26c0 43-34 77-77 77-43 0-77-34-77-77 0-43 34-77 77-77 43 0 77 34 77 77z m85-126l37-37c31 38 52 86 57 137l-52 0c-5-37-20-72-42-100z m-136-78l0-52c51 5 99 26 137 57l-37 37c-28-22-63-37-100-42z m-189 5c38-31 86-52 137-57l0 52c-37 5-72 20-100 42z"/>
<glyph glyph-name="ico-filter-vintage" unicode="&#57558;" d="M407 247c-6 4-13 6-19 9 6 3 13 5 19 9 44 26 69 72 69 119-41 23-93 25-137 0-7-4-13-8-18-12 1 7 2 14 2 21 0 51-28 95-69 119-41-24-69-68-69-119 0-7 1-14 2-21-5 4-11 8-18 12-44 26-96 24-137 0 0-47 24-93 69-119 6-3 13-6 19-9-6-2-13-5-19-9-44-25-69-71-69-119 41-23 93-25 137 0 7 4 13 8 18 13-1-8-2-15-2-22 0-51 28-95 69-119 41 24 69 68 69 119 0 7-1 14-2 21 5-4 11-8 18-12 43-25 96-23 137 0 0 47-25 93-69 119z m-153-83c-51 0-92 41-92 92 0 51 41 92 92 92 50 0 91-41 91-92 0-51-41-92-91-92z"/>
<glyph glyph-name="ico-find-in-page" unicode="&#57559;" d="M474 62l0 296-154 154-205 0c-28 0-51-23-51-51l0-410c0-28 23-51 51-51l307 0c12 0 22 4 31 10l-114 114c-20-14-44-22-70-22-71 0-128 58-128 128 0 71 57 128 128 128 70 0 128-57 128-128 0-26-8-50-21-70z m-282 168c0-42 34-76 77-76 42 0 77 34 77 76 0 43-35 77-77 77-43 0-77-34-77-77z"/>
<glyph glyph-name="ico-find-replace" unicode="&#57560;" d="M205 453c40 0 77-16 104-42l-75-75 176 0 0 176-60-60c-37 37-89 60-145 60-103 0-188-76-203-176l59 0c14 67 73 117 144 117z m165-267c19 26 33 58 37 92l-59 0c-13-67-72-117-143-117-40 0-77 16-104 42l75 75-176 0 0-176 60 60c37-37 88-60 145-60 45 0 87 15 121 40l142-142 44 44z"/>
<glyph glyph-name="ico-fingerprint" unicode="&#57561;" d="M411 449c-2 0-4 0-6 1-49 26-91 36-142 36-51 0-99-12-143-36-6-3-14-1-17 5-4 7-1 15 5 18 47 26 100 39 155 39 54 0 102-12 154-39 7-3 9-11 5-17-2-5-6-7-11-7z m-366-135c-3 0-5 1-8 3-5 4-7 12-3 18 26 35 58 64 96 83 81 42 184 42 264 1 39-20 71-48 96-84 4-5 3-13-3-18-6-4-14-2-18 4-23 32-52 57-86 75-74 37-168 37-241 0-35-18-64-44-87-76-2-4-6-6-10-6z m160-309c-3 0-7 2-9 4-22 22-34 37-52 68-17 31-26 70-26 111 0 76 65 138 144 138 80 0 145-62 145-138 0-7-5-13-12-13-8 0-13 6-13 13 0 62-54 112-120 112-65 0-119-50-119-112 0-37 8-71 24-99 16-29 28-42 47-62 5-5 5-13 0-18-2-2-6-4-9-4z m183 48c-30 0-57 7-79 23-38 25-61 67-61 112 0 7 6 13 13 13 7 0 13-6 13-13 0-36 18-70 49-91 19-13 40-18 65-18 7 0 17 0 27 2 7 1 14-3 15-10 1-7-3-14-11-15-14-3-27-3-31-3z m-51-53c-1 0-2 0-3 1-41 11-68 26-96 53-35 36-55 83-55 134 0 41 35 75 79 75 43 0 79-34 79-75 0-27 23-50 53-50 29 0 53 23 53 50 0 96-83 175-186 175-72 0-139-41-169-103-10-21-15-45-15-72 0-20 2-52 17-93 3-6 0-14-7-16-7-2-14 1-17 8-12 33-18 66-18 101 0 31 6 59 17 83 34 71 110 118 192 118 117 0 212-90 212-201 0-41-36-75-79-75-44 0-79 34-79 75 0 28-24 50-53 50-30 0-54-22-54-50 0-44 17-85 48-115 25-24 48-38 84-48 7-1 11-9 9-15-1-6-7-10-12-10z"/>
<glyph glyph-name="ico-fitness-center" unicode="&#57562;" d="M475 183l37 36-37 37-91-91-219 219 91 91-37 37-36-37-37 37-55-55-36 37-37-37 37-36-55-55 37-37-37-36 37-37 91 91 219-219-91-91 37-37 36 37 37-37 55 55 36-37 37 37-37 36 55 55z"/>
<glyph glyph-name="ico-flag" unicode="&#57563;" d="M315 452l-12 60-271 0 0-512 60 0 0 211 169 0 12-60 211 0 0 301z"/>
<glyph glyph-name="ico-flare" unicode="&#57564;" d="M140 279l-140 0 0-46 140 0z m50 76l-49 49-33-33 49-49z m89 157l-46 0 0-140 46 0z m125-141l-33 33-49-49 33-33z m-32-92l0-46 140 0 0 46z m-116 47c-39 0-70-31-70-70 0-39 31-70 70-70 39 0 70 31 70 70 0 39-31 70-70 70z m66-169l49-49 33 33-49 49z m-214-16l33-33 49 49-33 33z m125-141l46 0 0 140-46 0z"/>
<glyph glyph-name="ico-flash-auto" unicode="&#57565;" d="M32 512l0-293 73 0 0-219 171 293-98 0 98 219z m390 0l-49 0-78-219 47 0 17 48 78 0 17-48 46 0z m-52-138l28 89 28-89z"/>
<glyph glyph-name="ico-flash-off" unicode="&#57566;" d="M65 486l-33-32 128-128 0-96 77 0 0-230 91 157 107-106 32 33z m351-179l-102 0 102 205-256 0 0-56 217-216z"/>
<glyph glyph-name="ico-flash-on" unicode="&#57567;" d="M128 512l0-282 77 0 0-230 179 307-102 0 102 205z"/>
<glyph glyph-name="ico-flight" unicode="&#57568;" d="M486 154l0 51-204 128 0 141c0 21-18 38-39 38-21 0-38-17-38-38l0-141-205-128 0-51 205 64 0-141-51-39 0-38 89 26 90-26 0 38-51 39 0 141z"/>
<glyph glyph-name="ico-flight-land" unicode="&#57569;" d="M0 54l512 0 0-54-512 0z m193 154l118-31 143-38c21-6 43 7 49 28 6 22-7 44-28 50l-143 38-75 243-52 14 0-223-134 36-25 62-39 11 0-140 43-11z"/>
<glyph glyph-name="ico-flight-takeoff" unicode="&#57570;" d="M17 90l479 0 0-50-479 0z m494 237c-6 20-27 32-47 27l-134-36-174 162-49-13 105-181-126-33-49 38-37-9 46-80 19-34 41 11 134 36 110 29 134 36c20 6 32 27 27 47z"/>
<glyph glyph-name="ico-flip" unicode="&#57571;" d="M343 47l47 0 0 46-47 0z m93 279l47 0 0 46-47 0z m-372 93l0-326c0-26 21-46 47-46l93 0 0 46-93 0 0 326 93 0 0 46-93 0c-26 0-47-20-47-46z m372 46l0-46 47 0c0 26-21 46-47 46z m-186-465l47 0 0 512-47 0z m186 140l47 0 0 46-47 0z m-93 279l47 0 0 46-47 0z m93-186l47 0 0 46-47 0z m0-186c26 0 47 20 47 46l-47 0z"/>
</font>
</defs>
</svg>
